<svg width="136" height="32" viewBox="0 0 136 32" fill="none" xmlns="http://www.w3.org/2000/svg">
<path d="M36.8786 24.7132H39.7818L32.1935 6.85938H32.0492L24.4609 24.7132H26.9589L28.713 20.4539H35.1911L36.8786 24.7132ZM29.6123 18.2801L32.0159 12.4539L34.3251 18.2801H29.6123Z" fill="white"/>
<path d="M57.565 7.40949L57.615 19.415L45.0752 6.86328H44.9531V24.5736H47.5232L47.4566 12.7722L60.0186 25.1695H60.0908V7.40949H57.565Z" fill="white"/>
<path d="M67.6447 24.6013V7.43164H72.4519C74.1672 7.43164 75.6271 7.69095 76.8317 8.20957C78.0362 8.72819 79.0077 9.41233 79.746 10.2675C80.4842 11.1172 81.0227 12.0661 81.3669 13.1089C81.7055 14.1461 81.8776 15.1999 81.8776 16.2537C81.8776 17.5337 81.65 18.6813 81.1892 19.7075C80.7285 20.7337 80.1012 21.611 79.313 22.3447C78.5192 23.0785 77.6088 23.6358 76.5763 24.022C75.5438 24.4082 74.4503 24.6013 73.2957 24.6013H67.6558H67.6447ZM70.1927 22.1682H72.8072C73.7453 22.1682 74.6057 22.0358 75.3884 21.7654C76.1711 21.4951 76.8539 21.1034 77.4367 20.5847C78.014 20.0661 78.4637 19.4261 78.7801 18.6703C79.0965 17.9144 79.2575 17.0482 79.2575 16.0716C79.2575 15.0178 79.0798 14.0965 78.719 13.3185C78.3638 12.5406 77.8919 11.8896 77.3035 11.382C76.7151 10.8744 76.0656 10.4937 75.3385 10.2454C74.6168 10.0027 73.8841 9.87578 73.1402 9.87578H70.1927V22.1737V22.1682Z" fill="white"/>
<path d="M98.5149 9.7982C99.3531 9.7982 100.036 10.4768 100.036 11.3099V22.2285H91.1931C90.3549 22.2285 89.6721 21.5499 89.6721 20.7168V9.7982H98.5149ZM98.5149 7.42578H87.2852V20.7113C87.2852 22.8575 89.0337 24.5954 91.1931 24.5954H102.423V11.3099C102.423 9.16371 100.674 7.42578 98.5149 7.42578Z" fill="white"/>
<path d="M19.7686 12.2978V9.27992C19.7686 8.25923 18.9304 7.43164 17.9034 7.43164H4.49219V22.7254C4.49219 23.7461 5.33039 24.5737 6.35731 24.5737H17.9034C18.9304 24.5737 19.7686 23.7461 19.7686 22.7254V19.6468H17.3872V22.2013H6.8791V17.4565H13.0518V15.0896H6.8791V9.80405H17.3872V12.2978H19.7686Z" fill="white"/>
<path fill-rule="evenodd" clip-rule="evenodd" d="M129.153 3.31606H107.688V24.1547C107.688 26.4664 109.575 28.3368 111.895 28.3368H132.861V6.99606C132.861 4.9602 131.202 3.31055 129.153 3.31055V3.31606ZM126.26 9.89935C126.802 10.438 126.802 11.3113 126.26 11.85L122.258 15.8275L126.238 19.7806C126.78 20.3192 126.78 21.1925 126.238 21.7313C125.697 22.2701 124.818 22.2703 124.276 21.7318L120.296 17.7781L116.268 21.781C115.726 22.3197 114.848 22.3197 114.306 21.781C113.764 21.2424 113.764 20.369 114.306 19.8304L118.333 15.828L114.229 11.7511C113.686 11.2126 113.686 10.3393 114.228 9.80048C114.77 9.26166 115.648 9.26144 116.191 9.79993L120.295 13.8774L124.298 9.89935C124.84 9.3607 125.718 9.3607 126.26 9.89935Z" fill="white"/>
</svg>
