<svg width="450" height="222" viewBox="0 0 450 222" fill="none" xmlns="http://www.w3.org/2000/svg">
<path d="M0.5 8C0.5 3.858 3.858 0.5 8 0.5H442C446.14 0.5 449.5 3.858 449.5 8V214C449.5 218.142 446.14 221.5 442 221.5H8C3.858 221.5 0.5 218.142 0.5 214V8Z" fill="#10222A" stroke="#325B6F"/>
<path d="M36.5366 27.844C36.5366 27.645 36.5056 27.469 36.4426 27.316C36.3846 27.16 36.2786 27.02 36.1266 26.895C35.9786 26.77 35.7706 26.65 35.5056 26.537C35.2436 26.424 34.9116 26.309 34.5096 26.191C34.0876 26.066 33.7066 25.928 33.3666 25.775C33.0266 25.619 32.7357 25.441 32.4937 25.242C32.2517 25.043 32.0656 24.814 31.9376 24.557C31.8086 24.299 31.7437 24.004 31.7437 23.672C31.7437 23.34 31.8116 23.033 31.9486 22.752C32.0856 22.471 32.2806 22.227 32.5346 22.02C32.7926 21.809 33.0997 21.645 33.4547 21.527C33.8107 21.41 34.2067 21.352 34.6447 21.352C35.2847 21.352 35.8276 21.475 36.2726 21.721C36.7226 21.963 37.0636 22.281 37.2986 22.676C37.5326 23.066 37.6497 23.484 37.6497 23.93H36.5247C36.5247 23.609 36.4566 23.326 36.3196 23.08C36.1836 22.83 35.9766 22.635 35.6986 22.494C35.4216 22.35 35.0697 22.277 34.6447 22.277C34.2417 22.277 33.9096 22.338 33.6476 22.459C33.3866 22.58 33.1906 22.744 33.0616 22.951C32.9376 23.158 32.8746 23.395 32.8746 23.66C32.8746 23.84 32.9117 24.004 32.9857 24.152C33.0637 24.297 33.1836 24.432 33.3436 24.557C33.5076 24.682 33.7147 24.797 33.9647 24.902C34.2187 25.008 34.5206 25.109 34.8726 25.207C35.3566 25.344 35.7746 25.496 36.1266 25.664C36.4786 25.832 36.7677 26.021 36.9937 26.232C37.2247 26.439 37.3947 26.676 37.5037 26.941C37.6167 27.203 37.6736 27.5 37.6736 27.832C37.6736 28.18 37.6036 28.494 37.4626 28.775C37.3216 29.057 37.1206 29.297 36.8586 29.496C36.5976 29.695 36.2826 29.85 35.9156 29.959C35.5526 30.064 35.1457 30.117 34.6967 30.117C34.3027 30.117 33.9136 30.062 33.5306 29.953C33.1516 29.844 32.8067 29.68 32.4937 29.461C32.1857 29.242 31.9376 28.973 31.7496 28.652C31.5656 28.328 31.4746 27.953 31.4746 27.527H32.5996C32.5996 27.82 32.6557 28.072 32.7697 28.283C32.8827 28.49 33.0366 28.662 33.2316 28.799C33.4316 28.936 33.6556 29.037 33.9056 29.104C34.1596 29.166 34.4237 29.197 34.6967 29.197C35.0917 29.197 35.4256 29.143 35.6986 29.033C35.9726 28.924 36.1796 28.768 36.3196 28.564C36.4646 28.361 36.5366 28.121 36.5366 27.844ZM42.8297 28.535V23.66H43.9196V30H42.8826L42.8297 28.535ZM43.0346 27.199L43.4857 27.188C43.4857 27.609 43.4406 28 43.3516 28.359C43.2656 28.715 43.1246 29.023 42.9296 29.285C42.7336 29.547 42.4786 29.752 42.1616 29.9C41.8456 30.045 41.4606 30.117 41.0076 30.117C40.6986 30.117 40.4157 30.072 40.1577 29.982C39.9037 29.893 39.6856 29.754 39.5016 29.566C39.3176 29.379 39.1756 29.135 39.0736 28.834C38.9766 28.533 38.9276 28.172 38.9276 27.75V23.66H40.0117V27.762C40.0117 28.047 40.0426 28.283 40.1046 28.471C40.1716 28.654 40.2597 28.801 40.3687 28.91C40.4817 29.016 40.6067 29.09 40.7437 29.133C40.8847 29.176 41.0286 29.197 41.1776 29.197C41.6386 29.197 42.0036 29.109 42.2726 28.934C42.5426 28.754 42.7356 28.514 42.8536 28.213C42.9746 27.908 43.0346 27.57 43.0346 27.199ZM46.6556 24.879V32.438H45.5656V23.66H46.5616L46.6556 24.879ZM50.9276 26.777V26.9C50.9276 27.361 50.8726 27.789 50.7636 28.184C50.6536 28.574 50.4937 28.914 50.2827 29.203C50.0757 29.492 49.8196 29.717 49.5156 29.877C49.2106 30.037 48.8606 30.117 48.4666 30.117C48.0636 30.117 47.7087 30.051 47.3997 29.918C47.0917 29.785 46.8296 29.592 46.6146 29.338C46.3996 29.084 46.2286 28.779 46.0996 28.424C45.9746 28.068 45.8886 27.668 45.8416 27.223V26.566C45.8886 26.098 45.9766 25.678 46.1046 25.307C46.2336 24.936 46.4036 24.619 46.6146 24.357C46.8296 24.092 47.0897 23.891 47.3947 23.754C47.6987 23.613 48.0506 23.543 48.4486 23.543C48.8476 23.543 49.2006 23.621 49.5096 23.777C49.8176 23.93 50.0776 24.148 50.2886 24.434C50.4996 24.719 50.6576 25.061 50.7636 25.459C50.8726 25.854 50.9276 26.293 50.9276 26.777ZM49.8376 26.9V26.777C49.8376 26.461 49.8046 26.164 49.7376 25.887C49.6716 25.605 49.5676 25.359 49.4276 25.148C49.2906 24.934 49.1147 24.766 48.8997 24.645C48.6857 24.52 48.4296 24.457 48.1326 24.457C47.8586 24.457 47.6207 24.504 47.4177 24.598C47.2187 24.691 47.0487 24.818 46.9077 24.979C46.7677 25.135 46.6516 25.314 46.5616 25.518C46.4766 25.717 46.4117 25.924 46.3687 26.139V27.656C46.4467 27.93 46.5567 28.188 46.6967 28.43C46.8377 28.668 47.0246 28.861 47.2596 29.01C47.4936 29.154 47.7887 29.227 48.1447 29.227C48.4377 29.227 48.6887 29.166 48.8997 29.045C49.1147 28.92 49.2906 28.75 49.4276 28.535C49.5676 28.32 49.6716 28.074 49.7376 27.797C49.8046 27.516 49.8376 27.217 49.8376 26.9ZM53.3947 24.879V32.438H52.3046V23.66H53.3007L53.3947 24.879ZM57.6656 26.777V26.9C57.6656 27.361 57.6106 27.789 57.5016 28.184C57.3926 28.574 57.2316 28.914 57.0206 29.203C56.8136 29.492 56.5587 29.717 56.2537 29.877C55.9487 30.037 55.5997 30.117 55.2047 30.117C54.8027 30.117 54.4466 30.051 54.1386 29.918C53.8296 29.785 53.5676 29.592 53.3536 29.338C53.1386 29.084 52.9666 28.779 52.8376 28.424C52.7126 28.068 52.6267 27.668 52.5797 27.223V26.566C52.6267 26.098 52.7146 25.678 52.8436 25.307C52.9726 24.936 53.1426 24.619 53.3536 24.357C53.5676 24.092 53.8276 23.891 54.1326 23.754C54.4376 23.613 54.7886 23.543 55.1876 23.543C55.5856 23.543 55.9386 23.621 56.2476 23.777C56.5566 23.93 56.8156 24.148 57.0266 24.434C57.2376 24.719 57.3956 25.061 57.5016 25.459C57.6106 25.854 57.6656 26.293 57.6656 26.777ZM56.5756 26.9V26.777C56.5756 26.461 56.5426 26.164 56.4766 25.887C56.4096 25.605 56.3066 25.359 56.1656 25.148C56.0286 24.934 55.8536 24.766 55.6386 24.645C55.4236 24.52 55.1676 24.457 54.8706 24.457C54.5976 24.457 54.3586 24.504 54.1556 24.598C53.9566 24.691 53.7866 24.818 53.6456 24.979C53.5056 25.135 53.3907 25.314 53.3007 25.518C53.2147 25.717 53.1496 25.924 53.1066 26.139V27.656C53.1856 27.93 53.2946 28.188 53.4356 28.43C53.5756 28.668 53.7636 28.861 53.9976 29.01C54.2316 29.154 54.5266 29.227 54.8826 29.227C55.1756 29.227 55.4276 29.166 55.6386 29.045C55.8536 28.92 56.0286 28.75 56.1656 28.535C56.3066 28.32 56.4096 28.074 56.4766 27.797C56.5426 27.516 56.5756 27.217 56.5756 26.9ZM60.2266 21V30H59.1367V21H60.2266ZM63.1447 23.66V30H62.0546V23.66H63.1447ZM61.9727 21.979C61.9727 21.803 62.0246 21.654 62.1306 21.533C62.2396 21.412 62.3997 21.352 62.6107 21.352C62.8177 21.352 62.9766 21.412 63.0856 21.533C63.1986 21.654 63.2556 21.803 63.2556 21.979C63.2556 22.146 63.1986 22.291 63.0856 22.412C62.9766 22.529 62.8177 22.588 62.6107 22.588C62.3997 22.588 62.2396 22.529 62.1306 22.412C62.0246 22.291 61.9727 22.146 61.9727 21.979ZM67.5156 30.117C67.0736 30.117 66.6737 30.043 66.3137 29.895C65.9587 29.742 65.6517 29.529 65.3947 29.256C65.1407 28.982 64.9447 28.658 64.8087 28.283C64.6717 27.908 64.6036 27.498 64.6036 27.053V26.807C64.6036 26.291 64.6796 25.832 64.8316 25.43C64.9836 25.023 65.1906 24.68 65.4526 24.398C65.7146 24.117 66.0116 23.904 66.3436 23.76C66.6756 23.615 67.0196 23.543 67.3746 23.543C67.8276 23.543 68.2186 23.621 68.5466 23.777C68.8786 23.934 69.1497 24.152 69.3607 24.434C69.5717 24.711 69.7287 25.039 69.8297 25.418C69.9317 25.793 69.9816 26.203 69.9816 26.648V27.135H65.2476V26.25H68.8976V26.168C68.8826 25.887 68.8237 25.613 68.7227 25.348C68.6247 25.082 68.4687 24.863 68.2537 24.691C68.0387 24.52 67.7456 24.434 67.3746 24.434C67.1286 24.434 66.9016 24.486 66.6946 24.592C66.4876 24.693 66.3106 24.846 66.1616 25.049C66.0136 25.252 65.8976 25.5 65.8156 25.793C65.7336 26.086 65.6926 26.424 65.6926 26.807V27.053C65.6926 27.354 65.7336 27.637 65.8156 27.902C65.9016 28.164 66.0246 28.395 66.1856 28.594C66.3496 28.793 66.5466 28.949 66.7766 29.062C67.0116 29.176 67.2766 29.232 67.5736 29.232C67.9566 29.232 68.2806 29.154 68.5466 28.998C68.8116 28.842 69.0447 28.633 69.2437 28.371L69.8997 28.893C69.7637 29.1 69.5897 29.297 69.3787 29.484C69.1677 29.672 68.9076 29.824 68.5996 29.941C68.2946 30.059 67.9336 30.117 67.5156 30.117ZM72.3316 24.656V30H71.2476V23.66H72.3026L72.3316 24.656ZM74.3116 23.625L74.3066 24.633C74.2166 24.613 74.1306 24.602 74.0486 24.598C73.9706 24.59 73.8806 24.586 73.7786 24.586C73.5286 24.586 73.3086 24.625 73.1166 24.703C72.9256 24.781 72.7636 24.891 72.6306 25.031C72.4976 25.172 72.3927 25.34 72.3137 25.535C72.2397 25.727 72.1907 25.938 72.1677 26.168L71.8626 26.344C71.8626 25.961 71.8996 25.602 71.9746 25.266C72.0526 24.93 72.1716 24.633 72.3316 24.375C72.4916 24.113 72.6946 23.91 72.9406 23.766C73.1906 23.617 73.4876 23.543 73.8316 23.543C73.9096 23.543 73.9996 23.553 74.1016 23.572C74.2026 23.588 74.2726 23.605 74.3116 23.625ZM79.3746 25.014V30H78.2906V23.66H79.3156L79.3746 25.014ZM79.1166 26.59L78.6656 26.572C78.6696 26.139 78.7336 25.738 78.8586 25.371C78.9836 25 79.1597 24.678 79.3867 24.404C79.6127 24.131 79.8826 23.92 80.1946 23.771C80.5116 23.619 80.8607 23.543 81.2437 23.543C81.5567 23.543 81.8376 23.586 82.0876 23.672C82.3376 23.754 82.5506 23.887 82.7266 24.07C82.9056 24.254 83.0427 24.492 83.1367 24.785C83.2297 25.074 83.2766 25.428 83.2766 25.846V30H82.1876V25.834C82.1876 25.502 82.1386 25.236 82.0406 25.037C81.9426 24.834 81.8006 24.688 81.6126 24.598C81.4256 24.504 81.1946 24.457 80.9216 24.457C80.6516 24.457 80.4057 24.514 80.1837 24.627C79.9647 24.74 79.7746 24.896 79.6146 25.096C79.4586 25.295 79.3356 25.523 79.2456 25.781C79.1596 26.035 79.1166 26.305 79.1166 26.59ZM88.6616 28.916V25.652C88.6616 25.402 88.6106 25.186 88.5096 25.002C88.4116 24.814 88.2637 24.67 88.0637 24.568C87.8647 24.467 87.6186 24.416 87.3256 24.416C87.0526 24.416 86.8116 24.463 86.6046 24.557C86.4016 24.65 86.2416 24.773 86.1246 24.926C86.0116 25.078 85.9547 25.242 85.9547 25.418H84.8706C84.8706 25.191 84.9296 24.967 85.0466 24.744C85.1636 24.521 85.3317 24.32 85.5507 24.141C85.7727 23.957 86.0387 23.812 86.3477 23.707C86.6597 23.598 87.0076 23.543 87.3906 23.543C87.8516 23.543 88.2576 23.621 88.6086 23.777C88.9646 23.934 89.2416 24.17 89.4406 24.486C89.6446 24.799 89.7456 25.191 89.7456 25.664V28.617C89.7456 28.828 89.7636 29.053 89.7986 29.291C89.8376 29.529 89.8946 29.734 89.9686 29.906V30H88.8376C88.7826 29.875 88.7396 29.709 88.7086 29.502C88.6776 29.291 88.6616 29.096 88.6616 28.916ZM88.8496 26.156L88.8607 26.918H87.7656C87.4566 26.918 87.1817 26.943 86.9387 26.994C86.6967 27.041 86.4937 27.113 86.3297 27.211C86.1657 27.309 86.0407 27.432 85.9547 27.58C85.8687 27.725 85.8256 27.895 85.8256 28.09C85.8256 28.289 85.8706 28.471 85.9606 28.635C86.0506 28.799 86.1856 28.93 86.3646 29.027C86.5486 29.121 86.7726 29.168 87.0386 29.168C87.3706 29.168 87.6637 29.098 87.9177 28.957C88.1717 28.816 88.3726 28.645 88.5206 28.441C88.6736 28.238 88.7556 28.041 88.7676 27.85L89.2296 28.371C89.2026 28.535 89.1286 28.717 89.0076 28.916C88.8866 29.115 88.7246 29.307 88.5206 29.49C88.3216 29.67 88.0836 29.82 87.8066 29.941C87.5326 30.059 87.2246 30.117 86.8806 30.117C86.4506 30.117 86.0736 30.033 85.7496 29.865C85.4296 29.697 85.1796 29.473 84.9996 29.191C84.8236 28.906 84.7357 28.588 84.7357 28.236C84.7357 27.896 84.8026 27.598 84.9356 27.34C85.0676 27.078 85.2596 26.861 85.5096 26.689C85.7596 26.514 86.0606 26.381 86.4116 26.291C86.7636 26.201 87.1557 26.156 87.5897 26.156H88.8496ZM92.5286 24.92V30H91.4387V23.66H92.4706L92.5286 24.92ZM92.3066 26.59L91.8026 26.572C91.8066 26.139 91.8627 25.738 91.9727 25.371C92.0817 25 92.2436 24.678 92.4586 24.404C92.6736 24.131 92.9407 23.92 93.2617 23.771C93.5817 23.619 93.9526 23.543 94.3746 23.543C94.6716 23.543 94.9446 23.586 95.1946 23.672C95.4446 23.754 95.6616 23.885 95.8456 24.064C96.0286 24.244 96.1716 24.475 96.2726 24.756C96.3746 25.037 96.4257 25.377 96.4257 25.775V30H95.3416V25.828C95.3416 25.496 95.2846 25.23 95.1716 25.031C95.0616 24.832 94.9056 24.688 94.7026 24.598C94.4996 24.504 94.2616 24.457 93.9876 24.457C93.6676 24.457 93.3996 24.514 93.1856 24.627C92.9706 24.74 92.7986 24.896 92.6696 25.096C92.5406 25.295 92.4466 25.523 92.3886 25.781C92.3336 26.035 92.3066 26.305 92.3066 26.59ZM96.4136 25.992L95.6876 26.215C95.6906 25.867 95.7476 25.533 95.8566 25.213C95.9706 24.893 96.1326 24.607 96.3436 24.357C96.5586 24.107 96.8216 23.91 97.1346 23.766C97.4466 23.617 97.8046 23.543 98.2066 23.543C98.5466 23.543 98.8476 23.588 99.1086 23.678C99.3746 23.768 99.5976 23.906 99.7766 24.094C99.9606 24.277 100.1 24.514 100.193 24.803C100.287 25.092 100.334 25.436 100.334 25.834V30H99.2437V25.822C99.2437 25.467 99.1876 25.191 99.0736 24.996C98.9646 24.797 98.8086 24.658 98.6046 24.58C98.4056 24.498 98.1676 24.457 97.8906 24.457C97.6516 24.457 97.4406 24.498 97.2576 24.58C97.0736 24.662 96.9196 24.775 96.7946 24.92C96.6696 25.061 96.5736 25.223 96.5076 25.406C96.4446 25.59 96.4136 25.785 96.4136 25.992ZM104.605 30.117C104.164 30.117 103.764 30.043 103.404 29.895C103.049 29.742 102.742 29.529 102.484 29.256C102.23 28.982 102.035 28.658 101.898 28.283C101.762 27.908 101.693 27.498 101.693 27.053V26.807C101.693 26.291 101.77 25.832 101.922 25.43C102.074 25.023 102.281 24.68 102.543 24.398C102.805 24.117 103.102 23.904 103.434 23.76C103.766 23.615 104.109 23.543 104.465 23.543C104.918 23.543 105.309 23.621 105.637 23.777C105.969 23.934 106.24 24.152 106.451 24.434C106.662 24.711 106.818 25.039 106.92 25.418C107.021 25.793 107.072 26.203 107.072 26.648V27.135H102.338V26.25H105.988V26.168C105.973 25.887 105.914 25.613 105.812 25.348C105.715 25.082 105.559 24.863 105.344 24.691C105.129 24.52 104.836 24.434 104.465 24.434C104.219 24.434 103.992 24.486 103.785 24.592C103.578 24.693 103.4 24.846 103.252 25.049C103.104 25.252 102.988 25.5 102.906 25.793C102.824 26.086 102.783 26.424 102.783 26.807V27.053C102.783 27.354 102.824 27.637 102.906 27.902C102.992 28.164 103.115 28.395 103.275 28.594C103.439 28.793 103.637 28.949 103.867 29.062C104.102 29.176 104.367 29.232 104.664 29.232C105.047 29.232 105.371 29.154 105.637 28.998C105.902 28.842 106.135 28.633 106.334 28.371L106.99 28.893C106.854 29.1 106.68 29.297 106.469 29.484C106.258 29.672 105.998 29.824 105.689 29.941C105.385 30.059 105.023 30.117 104.605 30.117Z" fill="#849DA9"/>
<path d="M380.22 31.7728V32.9998H374.53V31.7728H380.22ZM374.83 21.6248V32.9998H373.32V21.6248H374.83ZM381.34 28.8668V28.6878C381.34 28.0778 381.43 27.5128 381.61 26.9918C381.79 26.4658 382.04 26.0098 382.38 25.6248C382.71 25.2338 383.11 24.9317 383.59 24.7188C384.06 24.4998 384.59 24.3908 385.18 24.3908C385.77 24.3908 386.31 24.4998 386.78 24.7188C387.26 24.9317 387.67 25.2338 388 25.6248C388.34 26.0098 388.6 26.4658 388.77 26.9918C388.95 27.5128 389.04 28.0778 389.04 28.6878V28.8668C389.04 29.4768 388.95 30.0418 388.77 30.5618C388.6 31.0828 388.34 31.5387 388 31.9297C387.67 32.3147 387.26 32.6168 386.79 32.8358C386.32 33.0488 385.79 33.1558 385.2 33.1558C384.6 33.1558 384.07 33.0488 383.59 32.8358C383.12 32.6168 382.71 32.3147 382.38 31.9297C382.04 31.5387 381.79 31.0828 381.61 30.5618C381.43 30.0418 381.34 29.4768 381.34 28.8668ZM382.79 28.6878V28.8668C382.79 29.2888 382.84 29.6878 382.94 30.0618C383.04 30.4318 383.18 30.7598 383.38 31.0468C383.59 31.3328 383.84 31.5598 384.14 31.7268C384.44 31.8878 384.79 31.9688 385.2 31.9688C385.59 31.9688 385.94 31.8878 386.23 31.7268C386.54 31.5598 386.79 31.3328 386.98 31.0468C387.18 30.7598 387.33 30.4318 387.43 30.0618C387.53 29.6878 387.59 29.2888 387.59 28.8668V28.6878C387.59 28.2708 387.53 27.8778 387.43 27.5078C387.33 27.1328 387.18 26.8018 386.98 26.5158C386.78 26.2238 386.53 25.9948 386.23 25.8278C385.93 25.6608 385.58 25.5778 385.18 25.5778C384.78 25.5778 384.43 25.6608 384.13 25.8278C383.84 25.9948 383.59 26.2238 383.38 26.5158C383.18 26.8018 383.04 27.1328 382.94 27.5078C382.84 27.8778 382.79 28.2708 382.79 28.6878ZM394.23 31.9688C394.58 31.9688 394.9 31.8978 395.19 31.7578C395.48 31.6168 395.72 31.4237 395.91 31.1797C396.09 30.9297 396.2 30.6458 396.23 30.3278H397.6C397.58 30.8278 397.41 31.2938 397.09 31.7268C396.79 32.1538 396.38 32.4998 395.88 32.7658C395.38 33.0258 394.83 33.1558 394.23 33.1558C393.6 33.1558 393.04 33.0438 392.57 32.8198C392.1 32.5958 391.71 32.2888 391.4 31.8978C391.09 31.5078 390.86 31.0597 390.7 30.5547C390.55 30.0437 390.48 29.5048 390.48 28.9378V28.6087C390.48 28.0417 390.55 27.5048 390.7 26.9998C390.86 26.4898 391.09 26.0388 391.4 25.6478C391.71 25.2578 392.1 24.9508 392.57 24.7268C393.04 24.5028 393.6 24.3908 394.23 24.3908C394.9 24.3908 395.47 24.5258 395.97 24.7968C396.46 25.0618 396.85 25.4268 397.13 25.8908C397.42 26.3488 397.58 26.8698 397.6 27.4528H396.23C396.2 27.1038 396.1 26.7888 395.93 26.5078C395.76 26.2268 395.53 26.0028 395.24 25.8358C394.96 25.6638 394.62 25.5778 394.23 25.5778C393.79 25.5778 393.42 25.6667 393.12 25.8438C392.82 26.0158 392.58 26.2498 392.41 26.5468C392.23 26.8388 392.11 27.1638 392.03 27.5228C391.96 27.8778 391.92 28.2397 391.92 28.6087V28.9378C391.92 29.3068 391.96 29.6718 392.03 30.0308C392.1 30.3908 392.23 30.7158 392.4 31.0078C392.58 31.2988 392.81 31.5338 393.11 31.7108C393.41 31.8828 393.79 31.9688 394.23 31.9688ZM404.21 31.5547V27.2028C404.21 26.8698 404.14 26.5808 404.01 26.3358C403.88 26.0858 403.68 25.8928 403.41 25.7578C403.15 25.6218 402.82 25.5547 402.43 25.5547C402.07 25.5547 401.74 25.6168 401.47 25.7418C401.2 25.8668 400.98 26.0307 400.83 26.2337C400.68 26.4377 400.6 26.6558 400.6 26.8908H399.16C399.16 26.5888 399.23 26.2888 399.39 25.9918C399.55 25.6948 399.77 25.4268 400.06 25.1878C400.36 24.9428 400.71 24.7497 401.12 24.6087C401.54 24.4637 402.01 24.3908 402.52 24.3908C403.13 24.3908 403.67 24.4948 404.14 24.7028C404.61 24.9108 404.98 25.2268 405.25 25.6478C405.52 26.0648 405.66 26.5888 405.66 27.2188V31.1558C405.66 31.4378 405.68 31.7367 405.73 32.0547C405.78 32.3717 405.85 32.6458 405.95 32.8748V32.9998H404.45C404.37 32.8328 404.32 32.6118 404.27 32.3358C404.23 32.0548 404.21 31.7937 404.21 31.5547ZM404.46 27.8748L404.48 28.8908H403.02C402.6 28.8908 402.24 28.9238 401.91 28.9918C401.59 29.0548 401.32 29.1508 401.1 29.2808C400.88 29.4108 400.72 29.5758 400.6 29.7728C400.49 29.9658 400.43 30.1928 400.43 30.4528C400.43 30.7188 400.49 30.9607 400.61 31.1797C400.73 31.3977 400.91 31.5728 401.15 31.7028C401.39 31.8278 401.69 31.8908 402.05 31.8908C402.49 31.8908 402.88 31.7967 403.22 31.6087C403.56 31.4217 403.83 31.1928 404.02 30.9218C404.23 30.6508 404.34 30.3878 404.35 30.1328L404.97 30.8278C404.93 31.0468 404.83 31.2887 404.67 31.5547C404.51 31.8197 404.29 32.0758 404.02 32.3198C403.76 32.5598 403.44 32.7598 403.07 32.9218C402.71 33.0778 402.29 33.1558 401.84 33.1558C401.26 33.1558 400.76 33.0438 400.33 32.8198C399.9 32.5958 399.57 32.2968 399.33 31.9218C399.09 31.5418 398.98 31.1168 398.98 30.6478C398.98 30.1948 399.07 29.7968 399.24 29.4528C399.42 29.1038 399.67 28.8148 400.01 28.5858C400.34 28.3518 400.74 28.1737 401.21 28.0547C401.68 27.9347 402.2 27.8748 402.78 27.8748H404.46ZM411.47 24.5468V25.6558H406.9V24.5468H411.47ZM408.45 22.4918H409.89V30.9058C409.89 31.1928 409.93 31.4087 410.02 31.5547C410.11 31.7007 410.23 31.7968 410.37 31.8438C410.51 31.8907 410.66 31.9138 410.82 31.9138C410.94 31.9138 411.07 31.9038 411.2 31.8828C411.33 31.8568 411.43 31.8358 411.5 31.8198L411.51 32.9998C411.39 33.0358 411.24 33.0698 411.05 33.1018C410.87 33.1378 410.65 33.1558 410.39 33.1558C410.04 33.1558 409.71 33.0858 409.41 32.9448C409.12 32.8048 408.88 32.5698 408.7 32.2418C408.53 31.9088 408.45 31.4608 408.45 30.8978V22.4918ZM414.73 24.5468V32.9998H413.28V24.5468H414.73ZM413.17 22.3047C413.17 22.0697 413.24 21.8718 413.38 21.7108C413.53 21.5488 413.74 21.4688 414.02 21.4688C414.3 21.4688 414.51 21.5488 414.66 21.7108C414.81 21.8718 414.88 22.0697 414.88 22.3047C414.88 22.5287 414.81 22.7208 414.66 22.8828C414.51 23.0388 414.3 23.1168 414.02 23.1168C413.74 23.1168 413.53 23.0388 413.38 22.8828C413.24 22.7208 413.17 22.5287 413.17 22.3047ZM416.67 28.8668V28.6878C416.67 28.0778 416.76 27.5128 416.94 26.9918C417.11 26.4658 417.37 26.0098 417.7 25.6248C418.04 25.2338 418.44 24.9317 418.91 24.7188C419.39 24.4998 419.92 24.3908 420.51 24.3908C421.1 24.3908 421.64 24.4998 422.11 24.7188C422.59 24.9317 422.99 25.2338 423.33 25.6248C423.67 26.0098 423.92 26.4658 424.1 26.9918C424.28 27.5128 424.37 28.0778 424.37 28.6878V28.8668C424.37 29.4768 424.28 30.0418 424.1 30.5618C423.92 31.0828 423.67 31.5387 423.33 31.9297C422.99 32.3147 422.59 32.6168 422.12 32.8358C421.65 33.0488 421.12 33.1558 420.52 33.1558C419.93 33.1558 419.4 33.0488 418.92 32.8358C418.45 32.6168 418.04 32.3147 417.7 31.9297C417.37 31.5387 417.11 31.0828 416.94 30.5618C416.76 30.0418 416.67 29.4768 416.67 28.8668ZM418.12 28.6878V28.8668C418.12 29.2888 418.17 29.6878 418.27 30.0618C418.36 30.4318 418.51 30.7598 418.71 31.0468C418.91 31.3328 419.17 31.5598 419.47 31.7268C419.77 31.8878 420.12 31.9688 420.52 31.9688C420.92 31.9688 421.27 31.8878 421.56 31.7268C421.86 31.5598 422.11 31.3328 422.31 31.0468C422.51 30.7598 422.66 30.4318 422.76 30.0618C422.86 29.6878 422.91 29.2888 422.91 28.8668V28.6878C422.91 28.2708 422.86 27.8778 422.76 27.5078C422.66 27.1328 422.51 26.8018 422.3 26.5158C422.11 26.2238 421.86 25.9948 421.55 25.8278C421.26 25.6608 420.91 25.5778 420.51 25.5778C420.11 25.5778 419.76 25.6608 419.46 25.8278C419.16 25.9948 418.91 26.2238 418.71 26.5158C418.51 26.8018 418.36 27.1328 418.27 27.5078C418.17 27.8778 418.12 28.2708 418.12 28.6878ZM427.62 26.3518V32.9998H426.18V24.5468H427.55L427.62 26.3518ZM427.28 28.4528L426.68 28.4297C426.68 27.8517 426.77 27.3178 426.94 26.8278C427.1 26.3328 427.34 25.9038 427.64 25.5388C427.94 25.1738 428.3 24.8928 428.72 24.6948C429.14 24.4918 429.61 24.3908 430.12 24.3908C430.53 24.3908 430.91 24.4478 431.24 24.5618C431.58 24.6718 431.86 24.8487 432.09 25.0938C432.33 25.3388 432.52 25.6558 432.64 26.0468C432.77 26.4318 432.83 26.9038 432.83 27.4608V32.9998H431.38V27.4448C431.38 27.0028 431.31 26.6478 431.18 26.3828C431.05 26.1118 430.86 25.9168 430.61 25.7968C430.36 25.6718 430.05 25.6087 429.69 25.6087C429.33 25.6087 429 25.6848 428.7 25.8358C428.41 25.9868 428.16 26.1948 427.95 26.4608C427.74 26.7268 427.57 27.0308 427.45 27.3748C427.34 27.7138 427.28 28.0728 427.28 28.4528Z" fill="#849DA9"/>
<path d="M352 36.1201H368V20.1201H352V36.1201Z" fill="black"/>
<path d="M37.2665 41.6019V52.9999H35.0165V44.1949L32.3125 45.0549V43.2809L37.0235 41.6019H37.2665ZM43.0865 47.8199L41.2895 47.3909L41.9385 41.6249H48.3285V43.4449H43.7895L43.5085 45.9689C43.6595 45.8799 43.8885 45.7859 44.1955 45.6879C44.5035 45.5829 44.8465 45.5309 45.2275 45.5309C45.7795 45.5309 46.2685 45.6169 46.6955 45.7889C47.1225 45.9609 47.4845 46.2109 47.7815 46.5389C48.0835 46.8669 48.3125 47.2679 48.4695 47.7419C48.6255 48.2159 48.7035 48.7529 48.7035 49.3519C48.7035 49.8569 48.6255 50.3389 48.4695 50.7969C48.3125 51.2499 48.0765 51.6559 47.7585 52.0159C47.4405 52.3699 47.0425 52.6479 46.5625 52.8519C46.0835 53.0549 45.5165 53.1559 44.8595 53.1559C44.3705 53.1559 43.8965 53.0829 43.4385 52.9379C42.9845 52.7919 42.5765 52.5759 42.2115 52.2889C41.8525 52.0029 41.5625 51.6559 41.3445 51.2499C41.1305 50.8389 41.0185 50.3699 41.0085 49.8439H43.2425C43.2735 50.1669 43.3575 50.4449 43.4925 50.6799C43.6335 50.9089 43.8185 51.0859 44.0475 51.2109C44.2765 51.3359 44.5445 51.3979 44.8525 51.3979C45.1385 51.3979 45.3835 51.3439 45.5865 51.2339C45.7895 51.1249 45.9535 50.9739 46.0785 50.7809C46.2035 50.5829 46.2945 50.3539 46.3525 50.0939C46.4145 49.8279 46.4455 49.5419 46.4455 49.2339C46.4455 48.9269 46.4095 48.6479 46.3365 48.3979C46.2635 48.1479 46.1515 47.9319 46.0005 47.7499C45.8495 47.5679 45.6565 47.4269 45.4225 47.3279C45.1935 47.2289 44.9245 47.1799 44.6175 47.1799C44.2015 47.1799 43.8785 47.2449 43.6485 47.3749C43.4245 47.5049 43.2375 47.6539 43.0865 47.8199ZM58.3755 44.5469V46.1409H53.4535V44.5469H58.3755ZM54.6725 42.4609H56.9225V50.4529C56.9225 50.6979 56.9535 50.8849 57.0165 51.0159C57.0835 51.1459 57.1825 51.2369 57.3125 51.2889C57.4435 51.3359 57.6075 51.3589 57.8055 51.3589C57.9455 51.3589 58.0705 51.3539 58.1805 51.3439C58.2945 51.3279 58.3915 51.3119 58.4695 51.2969L58.4775 52.9529C58.2845 53.0159 58.0765 53.0649 57.8525 53.1019C57.6285 53.1379 57.3805 53.1559 57.1095 53.1559C56.6155 53.1559 56.1825 53.0759 55.8125 52.9139C55.4485 52.7469 55.1675 52.4819 54.9695 52.1169C54.7715 51.7529 54.6725 51.2729 54.6725 50.6799V42.4609ZM59.0945 48.8589V48.6949C59.0945 48.0759 59.1825 47.5049 59.3595 46.9839C59.5365 46.4579 59.7945 46.0029 60.1335 45.6169C60.4715 45.2319 60.8885 44.9319 61.3835 44.7189C61.8785 44.4999 62.4455 44.3909 63.0865 44.3909C63.7275 44.3909 64.2975 44.4999 64.7975 44.7189C65.2975 44.9319 65.7165 45.2319 66.0555 45.6169C66.3985 46.0029 66.6595 46.4579 66.8365 46.9839C67.0135 47.5049 67.1025 48.0759 67.1025 48.6949V48.8589C67.1025 49.4739 67.0135 50.0439 66.8365 50.5699C66.6595 51.0909 66.3985 51.5469 66.0555 51.9379C65.7165 52.3229 65.2995 52.6219 64.8055 52.8359C64.3105 53.0489 63.7425 53.1559 63.1025 53.1559C62.4615 53.1559 61.8915 53.0489 61.3915 52.8359C60.8965 52.6219 60.4775 52.3229 60.1335 51.9379C59.7945 51.5469 59.5365 51.0909 59.3595 50.5699C59.1825 50.0439 59.0945 49.4739 59.0945 48.8589ZM61.3445 48.6949V48.8589C61.3445 49.2139 61.3755 49.5439 61.4385 49.8519C61.5005 50.1589 61.5995 50.4299 61.7345 50.6639C61.8755 50.8929 62.0575 51.0729 62.2815 51.2029C62.5055 51.3329 62.7795 51.3979 63.1025 51.3979C63.4145 51.3979 63.6825 51.3329 63.9065 51.2029C64.1305 51.0729 64.3105 50.8929 64.4455 50.6639C64.5815 50.4299 64.6805 50.1589 64.7425 49.8519C64.8105 49.5439 64.8445 49.2139 64.8445 48.8589V48.6949C64.8445 48.3519 64.8105 48.0289 64.7425 47.7269C64.6805 47.4189 64.5785 47.1479 64.4385 46.9139C64.3025 46.6739 64.1225 46.4869 63.8985 46.3519C63.6745 46.2159 63.4045 46.1479 63.0865 46.1479C62.7685 46.1479 62.4975 46.2159 62.2735 46.3519C62.0555 46.4869 61.8755 46.6739 61.7345 46.9139C61.5995 47.1479 61.5005 47.4189 61.4385 47.7269C61.3755 48.0289 61.3445 48.3519 61.3445 48.6949ZM70.6885 46.3519V52.9999H68.4385V44.5469H70.5475L70.6885 46.3519ZM70.3595 48.4769H69.7505C69.7505 47.8519 69.8315 47.2889 69.9925 46.7889C70.1545 46.2839 70.3805 45.8539 70.6725 45.4999C70.9645 45.1409 71.3105 44.8669 71.7115 44.6799C72.1175 44.4869 72.5705 44.3909 73.0705 44.3909C73.4665 44.3909 73.8285 44.4479 74.1565 44.5619C74.4845 44.6769 74.7665 44.8589 75.0005 45.1089C75.2405 45.3589 75.4225 45.6899 75.5475 46.1019C75.6775 46.5129 75.7425 47.0159 75.7425 47.6089V52.9999H73.4775V47.6019C73.4775 47.2269 73.4245 46.9349 73.3205 46.7269C73.2165 46.5179 73.0625 46.3719 72.8595 46.2889C72.6615 46.2009 72.4175 46.1559 72.1255 46.1559C71.8235 46.1559 71.5605 46.2159 71.3365 46.3359C71.1175 46.4559 70.9355 46.6219 70.7895 46.8359C70.6485 47.0439 70.5425 47.2889 70.4695 47.5699C70.3965 47.8519 70.3595 48.1539 70.3595 48.4769ZM82.0235 50.6639C82.0235 50.5029 81.9775 50.3569 81.8835 50.2269C81.7895 50.0959 81.6155 49.9769 81.3595 49.8669C81.1095 49.7529 80.7475 49.6479 80.2735 49.5549C79.8465 49.4609 79.4485 49.3439 79.0785 49.2029C78.7145 49.0569 78.3965 48.8829 78.1255 48.6799C77.8595 48.4769 77.6515 48.2369 77.5005 47.9609C77.3495 47.6799 77.2735 47.3589 77.2735 46.9999C77.2735 46.6459 77.3495 46.3119 77.5005 45.9999C77.6565 45.6879 77.8785 45.4109 78.1645 45.1719C78.4565 44.9269 78.8105 44.7369 79.2275 44.6019C79.6485 44.4609 80.1225 44.3909 80.6485 44.3909C81.3835 44.3909 82.0135 44.5079 82.5395 44.7419C83.0705 44.9769 83.4775 45.2989 83.7585 45.7109C84.0445 46.1169 84.1885 46.5809 84.1885 47.1019H81.9385C81.9385 46.8829 81.8915 46.6879 81.7975 46.5159C81.7085 46.3389 81.5685 46.2009 81.3755 46.1019C81.1885 45.9969 80.9435 45.9449 80.6415 45.9449C80.3915 45.9449 80.1745 45.9899 79.9925 46.0779C79.8105 46.1609 79.6695 46.2759 79.5705 46.4219C79.4775 46.5619 79.4305 46.7189 79.4305 46.8909C79.4305 47.0209 79.4565 47.1379 79.5085 47.2419C79.5655 47.3409 79.6565 47.4319 79.7815 47.5159C79.9065 47.5989 80.0685 47.6769 80.2665 47.7499C80.4695 47.8179 80.7195 47.8799 81.0165 47.9379C81.6255 48.0619 82.1695 48.2269 82.6485 48.4299C83.1285 48.6279 83.5085 48.8979 83.7895 49.2419C84.0705 49.5809 84.2115 50.0259 84.2115 50.5779C84.2115 50.9529 84.1285 51.2969 83.9615 51.6089C83.7945 51.9219 83.5555 52.1949 83.2425 52.4299C82.9305 52.6589 82.5555 52.8389 82.1175 52.9689C81.6855 53.0939 81.1985 53.1559 80.6565 53.1559C79.8705 53.1559 79.2035 53.0159 78.6565 52.7339C78.1155 52.4529 77.7035 52.0959 77.4225 51.6639C77.1465 51.2269 77.0085 50.7789 77.0085 50.3199H79.1415C79.1515 50.6279 79.2295 50.8749 79.3755 51.0619C79.5265 51.2499 79.7165 51.3849 79.9455 51.4689C80.1805 51.5519 80.4325 51.5939 80.7035 51.5939C80.9955 51.5939 81.2375 51.5549 81.4305 51.4769C81.6225 51.3929 81.7685 51.2839 81.8675 51.1479C81.9715 51.0079 82.0235 50.8459 82.0235 50.6639ZM96.3915 49.2269H98.7275C98.6805 49.9919 98.4695 50.6719 98.0945 51.2659C97.7245 51.8589 97.2065 52.3229 96.5395 52.6559C95.8785 52.9899 95.0815 53.1559 94.1485 53.1559C93.4195 53.1559 92.7665 53.0309 92.1885 52.7809C91.6095 52.5259 91.1155 52.1609 90.7035 51.6879C90.2975 51.2139 89.9875 50.6409 89.7735 49.9689C89.5605 49.2969 89.4535 48.5439 89.4535 47.7109V46.9219C89.4535 46.0889 89.5625 45.3359 89.7815 44.6639C90.0055 43.9869 90.3235 43.4109 90.7345 42.9379C91.1515 42.4639 91.6485 42.0989 92.2275 41.8439C92.8055 41.5889 93.4515 41.4609 94.1645 41.4609C95.1125 41.4609 95.9115 41.6329 96.5625 41.9769C97.2195 42.3199 97.7275 42.7939 98.0865 43.3979C98.4515 44.0029 98.6695 44.6899 98.7425 45.4609H96.3985C96.3725 45.0029 96.2815 44.6149 96.1255 44.2969C95.9695 43.9739 95.7325 43.7319 95.4145 43.5699C95.1025 43.4039 94.6855 43.3199 94.1645 43.3199C93.7735 43.3199 93.4325 43.3929 93.1415 43.5389C92.8495 43.6849 92.6045 43.9059 92.4065 44.2029C92.2085 44.4999 92.0605 44.8749 91.9615 45.3279C91.8675 45.7759 91.8205 46.3019 91.8205 46.9059V47.7109C91.8205 48.2989 91.8655 48.8179 91.9535 49.2659C92.0425 49.7079 92.1775 50.0829 92.3595 50.3909C92.5475 50.6929 92.7865 50.9219 93.0785 51.0779C93.3755 51.2289 93.7325 51.3049 94.1485 51.3049C94.6385 51.3049 95.0425 51.2269 95.3595 51.0699C95.6775 50.9139 95.9195 50.6819 96.0865 50.3749C96.2585 50.0679 96.3595 49.6849 96.3915 49.2269ZM99.7665 48.8589V48.6949C99.7665 48.0759 99.8545 47.5049 100.031 46.9839C100.208 46.4579 100.466 46.0029 100.805 45.6169C101.143 45.2319 101.56 44.9319 102.055 44.7189C102.549 44.4999 103.117 44.3909 103.758 44.3909C104.398 44.3909 104.969 44.4999 105.469 44.7189C105.969 44.9319 106.388 45.2319 106.727 45.6169C107.07 46.0029 107.331 46.4579 107.508 46.9839C107.685 47.5049 107.773 48.0759 107.773 48.6949V48.8589C107.773 49.4739 107.685 50.0439 107.508 50.5699C107.331 51.0909 107.07 51.5469 106.727 51.9379C106.388 52.3229 105.971 52.6219 105.477 52.8359C104.982 53.0489 104.414 53.1559 103.773 53.1559C103.133 53.1559 102.562 53.0489 102.062 52.8359C101.569 52.6219 101.148 52.3229 100.805 51.9379C100.466 51.5469 100.208 51.0909 100.031 50.5699C99.8545 50.0439 99.7665 49.4739 99.7665 48.8589ZM102.016 48.6949V48.8589C102.016 49.2139 102.047 49.5439 102.109 49.8519C102.172 50.1589 102.271 50.4299 102.406 50.6639C102.547 50.8929 102.729 51.0729 102.953 51.2029C103.177 51.3329 103.451 51.3979 103.773 51.3979C104.086 51.3979 104.354 51.3329 104.578 51.2029C104.802 51.0729 104.982 50.8929 105.117 50.6639C105.253 50.4299 105.352 50.1589 105.414 49.8519C105.482 49.5439 105.516 49.2139 105.516 48.8589V48.6949C105.516 48.3519 105.482 48.0289 105.414 47.7269C105.352 47.4189 105.25 47.1479 105.109 46.9139C104.974 46.6739 104.794 46.4869 104.57 46.3519C104.346 46.2159 104.076 46.1479 103.758 46.1479C103.44 46.1479 103.169 46.2159 102.945 46.3519C102.727 46.4869 102.547 46.6739 102.406 46.9139C102.271 47.1479 102.172 47.4189 102.109 47.7269C102.047 48.0289 102.016 48.3519 102.016 48.6949ZM116.844 51.2419V52.9999H109.062V51.4999L112.742 47.5549C113.112 47.1429 113.404 46.7809 113.617 46.4689C113.831 46.1509 113.984 45.8669 114.078 45.6169C114.177 45.3619 114.227 45.1199 114.227 44.8909C114.227 44.5469 114.169 44.2529 114.055 44.0079C113.94 43.7579 113.771 43.5649 113.547 43.4299C113.328 43.2939 113.057 43.2269 112.734 43.2269C112.391 43.2269 112.094 43.3099 111.844 43.4769C111.599 43.6429 111.411 43.8749 111.281 44.1719C111.156 44.4689 111.094 44.8049 111.094 45.1799H108.836C108.836 44.5029 108.997 43.8829 109.32 43.3199C109.643 42.7529 110.099 42.3019 110.688 41.9689C111.276 41.6299 111.974 41.4609 112.781 41.4609C113.578 41.4609 114.25 41.5909 114.797 41.8519C115.349 42.1069 115.766 42.4769 116.047 42.9609C116.333 43.4399 116.477 44.0129 116.477 44.6799C116.477 45.0549 116.417 45.4219 116.297 45.7809C116.177 46.1349 116.005 46.4899 115.781 46.8439C115.562 47.1929 115.297 47.5469 114.984 47.9059C114.672 48.2659 114.326 48.6379 113.945 49.0229L111.969 51.2419H116.844Z" fill="#D6DEE2"/>
<path d="M32 190L300 190V78L32 78V190Z" fill="url(#paint0_linear_59_246)"/>
<path d="M376 172C391.464 172 404 159.464 404 144C404 128.536 391.464 116 376 116C360.536 116 348 128.536 348 144C348 159.464 360.536 172 376 172Z" stroke="#D1841E" stroke-width="44"/>
<path d="M376 116C360.54 116 348 128.488 348 143.894C348 153.244 352.62 161.52 359.71 166.581" stroke="#325B6F" stroke-width="44"/>
<path d="M32 78V190" stroke="#2C5264"/>
<path d="M302 190H31" stroke="#2C5264"/>
<path d="M262.74 206.705L265.26 199.469H266.48L263.32 208H262.45L262.74 206.705ZM260.39 199.469L262.88 206.705L263.2 208H262.32L259.17 199.469H260.39ZM270.94 206.916V203.652C270.94 203.402 270.88 203.186 270.78 203.002C270.69 202.814 270.54 202.67 270.34 202.568C270.14 202.467 269.89 202.416 269.6 202.416C269.33 202.416 269.09 202.463 268.88 202.557C268.68 202.65 268.52 202.773 268.4 202.926C268.29 203.078 268.23 203.242 268.23 203.418H267.14C267.14 203.191 267.2 202.967 267.32 202.744C267.44 202.521 267.61 202.32 267.82 202.141C268.05 201.957 268.31 201.812 268.62 201.707C268.93 201.598 269.28 201.543 269.66 201.543C270.12 201.543 270.53 201.621 270.88 201.777C271.24 201.934 271.52 202.17 271.71 202.486C271.92 202.799 272.02 203.191 272.02 203.664V206.617C272.02 206.828 272.04 207.053 272.07 207.291C272.11 207.529 272.17 207.734 272.24 207.906V208H271.11C271.06 207.875 271.01 207.709 270.98 207.502C270.95 207.291 270.94 207.096 270.94 206.916ZM271.12 204.156L271.13 204.918H270.04C269.73 204.918 269.46 204.943 269.21 204.994C268.97 205.041 268.77 205.113 268.6 205.211C268.44 205.309 268.31 205.432 268.23 205.58C268.14 205.725 268.1 205.895 268.1 206.09C268.1 206.289 268.14 206.471 268.23 206.635C268.32 206.799 268.46 206.93 268.64 207.027C268.82 207.121 269.05 207.168 269.31 207.168C269.64 207.168 269.94 207.098 270.19 206.957C270.45 206.816 270.65 206.645 270.79 206.441C270.95 206.238 271.03 206.041 271.04 205.85L271.5 206.371C271.48 206.535 271.4 206.717 271.28 206.916C271.16 207.115 271 207.307 270.79 207.49C270.6 207.67 270.36 207.82 270.08 207.941C269.81 208.059 269.5 208.117 269.15 208.117C268.72 208.117 268.35 208.033 268.02 207.865C267.7 207.697 267.45 207.473 267.27 207.191C267.1 206.906 267.01 206.588 267.01 206.236C267.01 205.896 267.08 205.598 267.21 205.34C267.34 205.078 267.53 204.861 267.78 204.689C268.03 204.514 268.33 204.381 268.69 204.291C269.04 204.201 269.43 204.156 269.86 204.156H271.12ZM274.81 202.656V208H273.72V201.66H274.78L274.81 202.656ZM276.79 201.625L276.78 202.633C276.69 202.613 276.61 202.602 276.53 202.598C276.45 202.59 276.36 202.586 276.26 202.586C276.01 202.586 275.79 202.625 275.59 202.703C275.4 202.781 275.24 202.891 275.11 203.031C274.97 203.172 274.87 203.34 274.79 203.535C274.72 203.727 274.67 203.938 274.64 204.168L274.34 204.344C274.34 203.961 274.38 203.602 274.45 203.266C274.53 202.93 274.65 202.633 274.81 202.375C274.97 202.113 275.17 201.91 275.42 201.766C275.67 201.617 275.96 201.543 276.31 201.543C276.39 201.543 276.48 201.553 276.58 201.572C276.68 201.588 276.75 201.605 276.79 201.625ZM278.97 201.66V208H277.88V201.66H278.97ZM277.8 199.979C277.8 199.803 277.85 199.654 277.96 199.533C278.06 199.412 278.22 199.352 278.44 199.352C278.64 199.352 278.8 199.412 278.91 199.533C279.02 199.654 279.08 199.803 279.08 199.979C279.08 200.146 279.02 200.291 278.91 200.412C278.8 200.529 278.64 200.588 278.44 200.588C278.22 200.588 278.06 200.529 277.96 200.412C277.85 200.291 277.8 200.146 277.8 199.979ZM284.45 206.916V203.652C284.45 203.402 284.4 203.186 284.29 203.002C284.2 202.814 284.05 202.67 283.85 202.568C283.65 202.467 283.4 202.416 283.11 202.416C282.84 202.416 282.6 202.463 282.39 202.557C282.19 202.65 282.03 202.773 281.91 202.926C281.8 203.078 281.74 203.242 281.74 203.418H280.66C280.66 203.191 280.71 202.967 280.83 202.744C280.95 202.521 281.12 202.32 281.34 202.141C281.56 201.957 281.82 201.812 282.13 201.707C282.45 201.598 282.79 201.543 283.18 201.543C283.64 201.543 284.04 201.621 284.39 201.777C284.75 201.934 285.03 202.17 285.23 202.486C285.43 202.799 285.53 203.191 285.53 203.664V206.617C285.53 206.828 285.55 207.053 285.58 207.291C285.62 207.529 285.68 207.734 285.75 207.906V208H284.62C284.57 207.875 284.53 207.709 284.49 207.502C284.46 207.291 284.45 207.096 284.45 206.916ZM284.63 204.156L284.65 204.918H283.55C283.24 204.918 282.97 204.943 282.72 204.994C282.48 205.041 282.28 205.113 282.12 205.211C281.95 205.309 281.83 205.432 281.74 205.58C281.65 205.725 281.61 205.895 281.61 206.09C281.61 206.289 281.66 206.471 281.75 206.635C281.84 206.799 281.97 206.93 282.15 207.027C282.33 207.121 282.56 207.168 282.82 207.168C283.16 207.168 283.45 207.098 283.7 206.957C283.96 206.816 284.16 206.645 284.31 206.441C284.46 206.238 284.54 206.041 284.55 205.85L285.02 206.371C284.99 206.535 284.91 206.717 284.79 206.916C284.67 207.115 284.51 207.307 284.31 207.49C284.11 207.67 283.87 207.82 283.59 207.941C283.32 208.059 283.01 208.117 282.67 208.117C282.24 208.117 281.86 208.033 281.54 207.865C281.21 207.697 280.96 207.473 280.79 207.191C280.61 206.906 280.52 206.588 280.52 206.236C280.52 205.896 280.59 205.598 280.72 205.34C280.85 205.078 281.04 204.861 281.29 204.689C281.54 204.514 281.85 204.381 282.2 204.291C282.55 204.201 282.94 204.156 283.38 204.156H284.63ZM288.32 203.014V208H287.24V201.66H288.26L288.32 203.014ZM288.06 204.59L287.61 204.572C287.62 204.139 287.68 203.738 287.8 203.371C287.93 203 288.11 202.678 288.33 202.404C288.56 202.131 288.83 201.92 289.14 201.771C289.46 201.619 289.81 201.543 290.19 201.543C290.5 201.543 290.78 201.586 291.03 201.672C291.28 201.754 291.5 201.887 291.67 202.07C291.85 202.254 291.99 202.492 292.08 202.785C292.18 203.074 292.22 203.428 292.22 203.846V208H291.13V203.834C291.13 203.502 291.08 203.236 290.99 203.037C290.89 202.834 290.75 202.688 290.56 202.598C290.37 202.504 290.14 202.457 289.87 202.457C289.6 202.457 289.35 202.514 289.13 202.627C288.91 202.74 288.72 202.896 288.56 203.096C288.4 203.295 288.28 203.523 288.19 203.781C288.11 204.035 288.06 204.305 288.06 204.59ZM296.52 201.66V202.492H293.1V201.66H296.52ZM294.26 200.119H295.34V206.43C295.34 206.645 295.37 206.807 295.44 206.916C295.51 207.025 295.59 207.098 295.7 207.133C295.8 207.168 295.92 207.186 296.04 207.186C296.13 207.186 296.22 207.178 296.32 207.162C296.42 207.143 296.5 207.127 296.55 207.115V208C296.47 208.027 296.35 208.053 296.21 208.076C296.08 208.104 295.91 208.117 295.71 208.117C295.45 208.117 295.21 208.064 294.98 207.959C294.76 207.854 294.58 207.678 294.45 207.432C294.32 207.182 294.26 206.846 294.26 206.424V200.119ZM301.49 206.318C301.49 206.162 301.45 206.018 301.38 205.885C301.31 205.748 301.18 205.625 300.96 205.516C300.76 205.402 300.45 205.305 300.03 205.223C299.68 205.148 299.36 205.061 299.07 204.959C298.79 204.857 298.55 204.734 298.35 204.59C298.16 204.445 298.01 204.275 297.9 204.08C297.79 203.885 297.74 203.656 297.74 203.395C297.74 203.145 297.8 202.908 297.91 202.686C298.02 202.463 298.18 202.266 298.38 202.094C298.59 201.922 298.84 201.787 299.12 201.689C299.41 201.592 299.74 201.543 300.09 201.543C300.6 201.543 301.03 201.633 301.39 201.812C301.75 201.992 302.03 202.232 302.22 202.533C302.41 202.83 302.51 203.16 302.51 203.523H301.42C301.42 203.348 301.37 203.178 301.26 203.014C301.16 202.846 301.01 202.707 300.81 202.598C300.62 202.488 300.38 202.434 300.09 202.434C299.79 202.434 299.55 202.48 299.36 202.574C299.18 202.664 299.04 202.779 298.96 202.92C298.87 203.061 298.83 203.209 298.83 203.365C298.83 203.482 298.85 203.588 298.89 203.682C298.93 203.771 299.01 203.855 299.11 203.934C299.22 204.008 299.37 204.078 299.56 204.145C299.75 204.211 299.99 204.277 300.29 204.344C300.81 204.461 301.24 204.602 301.57 204.766C301.91 204.93 302.16 205.131 302.32 205.369C302.49 205.607 302.57 205.896 302.57 206.236C302.57 206.514 302.51 206.768 302.39 206.998C302.28 207.229 302.12 207.428 301.9 207.596C301.68 207.76 301.42 207.889 301.12 207.982C300.83 208.072 300.49 208.117 300.12 208.117C299.56 208.117 299.09 208.018 298.7 207.818C298.32 207.619 298.02 207.361 297.82 207.045C297.62 206.729 297.53 206.395 297.53 206.043H298.62C298.63 206.34 298.72 206.576 298.87 206.752C299.03 206.924 299.22 207.047 299.45 207.121C299.67 207.191 299.9 207.227 300.12 207.227C300.42 207.227 300.67 207.188 300.87 207.109C301.07 207.031 301.22 206.924 301.33 206.787C301.43 206.65 301.49 206.494 301.49 206.318Z" fill="#6E797D"/>
<path d="M44.1411 79.2866H45.2661C45.2071 79.8256 45.0531 80.3086 44.8031 80.7336C44.5531 81.1596 44.1991 81.4976 43.7421 81.7476C43.2851 81.9936 42.7151 82.1166 42.0311 82.1166C41.5311 82.1166 41.0761 82.0226 40.6661 81.8356C40.2601 81.6476 39.9101 81.3826 39.6171 81.0386C39.3241 80.6906 39.0981 80.2746 38.9381 79.7906C38.7811 79.3026 38.7031 78.7596 38.7031 78.1616V77.3116C38.7031 76.7146 38.7811 76.1736 38.9381 75.6886C39.0981 75.2006 39.3261 74.7826 39.6231 74.4356C39.9241 74.0876 40.2851 73.8196 40.7071 73.6326C41.1291 73.4446 41.6041 73.3516 42.1311 73.3516C42.7751 73.3516 43.3201 73.4726 43.7661 73.7146C44.2111 73.9566 44.5571 74.2926 44.8031 74.7226C45.0531 75.1476 45.2071 75.6426 45.2661 76.2046H44.1411C44.0861 75.8066 43.9841 75.4646 43.8361 75.1796C43.6881 74.8906 43.4771 74.6676 43.2031 74.5116C42.9301 74.3546 42.5721 74.2766 42.1311 74.2766C41.7521 74.2766 41.4182 74.3496 41.1292 74.4936C40.8442 74.6386 40.6041 74.8436 40.4081 75.1086C40.2171 75.3746 40.0721 75.6926 39.9751 76.0636C39.8771 76.4356 39.8281 76.8476 39.8281 77.3006V78.1616C39.8281 78.5796 39.8711 78.9726 39.9571 79.3396C40.0471 79.7066 40.1821 80.0286 40.3611 80.3066C40.5411 80.5836 40.7701 80.8026 41.0471 80.9626C41.3241 81.1186 41.6521 81.1966 42.0311 81.1966C42.5121 81.1966 42.8951 81.1206 43.1801 80.9686C43.4651 80.8156 43.6801 80.5976 43.8241 80.3116C43.9731 80.0266 44.0781 79.6856 44.1411 79.2866ZM46.3551 78.8996V78.7656C46.3551 78.3086 46.4221 77.8846 46.5551 77.4936C46.6881 77.0996 46.8792 76.7576 47.1292 76.4686C47.3792 76.1756 47.6821 75.9486 48.0371 75.7886C48.3931 75.6246 48.7911 75.5426 49.2321 75.5426C49.6781 75.5426 50.0781 75.6246 50.4341 75.7886C50.7931 75.9486 51.0981 76.1756 51.3481 76.4686C51.6021 76.7576 51.7951 77.0996 51.9281 77.4936C52.0611 77.8846 52.1271 78.3086 52.1271 78.7656V78.8996C52.1271 79.3566 52.0611 79.7806 51.9281 80.1716C51.7951 80.5616 51.6021 80.9036 51.3481 81.1966C51.0981 81.4856 50.7951 81.7126 50.4391 81.8766C50.0881 82.0366 49.6891 82.1166 49.2441 82.1166C48.7991 82.1166 48.3982 82.0366 48.0432 81.8766C47.6882 81.7126 47.3832 81.4856 47.1292 81.1966C46.8792 80.9036 46.6881 80.5616 46.5551 80.1716C46.4221 79.7806 46.3551 79.3566 46.3551 78.8996ZM47.4391 78.7656V78.8996C47.4391 79.2166 47.4771 79.5156 47.5511 79.7966C47.6251 80.0736 47.7361 80.3196 47.8851 80.5346C48.0371 80.7496 48.2271 80.9196 48.4531 81.0446C48.6801 81.1656 48.9431 81.2266 49.2441 81.2266C49.5411 81.2266 49.8011 81.1656 50.0231 81.0446C50.2501 80.9196 50.4381 80.7496 50.5861 80.5346C50.7341 80.3196 50.8461 80.0736 50.9201 79.7966C50.9981 79.5156 51.0371 79.2166 51.0371 78.8996V78.7656C51.0371 78.4526 50.9981 78.1576 50.9201 77.8806C50.8461 77.5996 50.7321 77.3516 50.5801 77.1366C50.4321 76.9176 50.2441 76.7456 50.0181 76.6206C49.7951 76.4956 49.5331 76.4336 49.2321 76.4336C48.9361 76.4336 48.6741 76.4956 48.4471 76.6206C48.2251 76.7456 48.0371 76.9176 47.8851 77.1366C47.7361 77.3516 47.6251 77.5996 47.5511 77.8806C47.4771 78.1576 47.4391 78.4526 47.4391 78.7656ZM58.9591 81.1086V81.9996H53.3751V81.2206L56.1701 78.1086C56.5141 77.7266 56.7791 77.4016 56.9671 77.1366C57.1581 76.8666 57.2911 76.6266 57.3651 76.4156C57.4431 76.2006 57.4821 75.9816 57.4821 75.7596C57.4821 75.4786 57.4241 75.2246 57.3071 74.9976C57.1931 74.7676 57.0251 74.5836 56.8031 74.4466C56.5801 74.3106 56.3111 74.2416 55.9941 74.2416C55.6151 74.2416 55.2991 74.3156 55.0451 74.4646C54.7951 74.6086 54.6071 74.8116 54.4821 75.0736C54.3571 75.3356 54.2951 75.6366 54.2951 75.9766H53.2111C53.2111 75.4956 53.3161 75.0566 53.5271 74.6576C53.7381 74.2596 54.0511 73.9426 54.4651 73.7086C54.8791 73.4706 55.3891 73.3516 55.9941 73.3516C56.5331 73.3516 56.9941 73.4466 57.3771 73.6386C57.7601 73.8256 58.0531 74.0916 58.2561 74.4356C58.4631 74.7746 58.5661 75.1736 58.5661 75.6306C58.5661 75.8806 58.5231 76.1346 58.4381 76.3926C58.3551 76.6456 58.2401 76.8996 58.0921 77.1536C57.9471 77.4076 57.7771 77.6576 57.5821 77.9036C57.3911 78.1496 57.1861 78.3926 56.9671 78.6306L54.6821 81.1086H58.9591Z" fill="#6E797D"/>
<path d="M330.99 75.469H333.81C334.46 75.469 335 75.566 335.44 75.762C335.88 75.957 336.22 76.246 336.45 76.629C336.69 77.008 336.8 77.475 336.8 78.029C336.8 78.42 336.72 78.777 336.56 79.102C336.41 79.422 336.18 79.695 335.88 79.922C335.59 80.145 335.24 80.311 334.83 80.42L334.51 80.543H331.86L331.85 79.623H333.85C334.26 79.623 334.59 79.553 334.86 79.412C335.13 79.268 335.34 79.074 335.47 78.832C335.61 78.59 335.68 78.322 335.68 78.029C335.68 77.701 335.61 77.414 335.48 77.168C335.36 76.922 335.15 76.732 334.88 76.6C334.6 76.463 334.25 76.395 333.81 76.395H332.12V84H330.99V75.469ZM335.98 84L333.9 80.133L335.08 80.127L337.18 83.93V84H335.98ZM340.85 84.117C340.41 84.117 340.01 84.043 339.65 83.895C339.29 83.742 338.99 83.529 338.73 83.256C338.48 82.982 338.28 82.658 338.14 82.283C338.01 81.908 337.94 81.498 337.94 81.053V80.807C337.94 80.291 338.02 79.832 338.17 79.43C338.32 79.023 338.53 78.68 338.79 78.398C339.05 78.117 339.35 77.904 339.68 77.76C340.01 77.615 340.36 77.543 340.71 77.543C341.16 77.543 341.55 77.621 341.88 77.777C342.21 77.934 342.49 78.152 342.7 78.434C342.91 78.711 343.06 79.039 343.17 79.418C343.27 79.793 343.32 80.203 343.32 80.648V81.135H338.58V80.25H342.23V80.168C342.22 79.887 342.16 79.613 342.06 79.348C341.96 79.082 341.8 78.863 341.59 78.691C341.38 78.52 341.08 78.434 340.71 78.434C340.46 78.434 340.24 78.486 340.03 78.592C339.82 78.693 339.65 78.846 339.5 79.049C339.35 79.252 339.23 79.5 339.15 79.793C339.07 80.086 339.03 80.424 339.03 80.807V81.053C339.03 81.354 339.07 81.637 339.15 81.902C339.24 82.164 339.36 82.395 339.52 82.594C339.69 82.793 339.88 82.949 340.11 83.062C340.35 83.176 340.61 83.232 340.91 83.232C341.29 83.232 341.62 83.154 341.88 82.998C342.15 82.842 342.38 82.633 342.58 82.371L343.24 82.893C343.1 83.1 342.93 83.297 342.71 83.484C342.5 83.672 342.24 83.824 341.94 83.941C341.63 84.059 341.27 84.117 340.85 84.117ZM347.12 83.227C347.38 83.227 347.62 83.174 347.84 83.068C348.05 82.963 348.23 82.818 348.38 82.635C348.52 82.447 348.6 82.234 348.62 81.996H349.65C349.63 82.371 349.5 82.721 349.27 83.045C349.04 83.365 348.73 83.625 348.36 83.824C347.98 84.02 347.57 84.117 347.12 84.117C346.64 84.117 346.23 84.033 345.87 83.865C345.52 83.697 345.23 83.467 344.99 83.174C344.76 82.881 344.59 82.545 344.47 82.166C344.36 81.783 344.3 81.379 344.3 80.953V80.707C344.3 80.281 344.36 79.879 344.47 79.5C344.59 79.117 344.76 78.779 344.99 78.486C345.23 78.193 345.52 77.963 345.87 77.795C346.23 77.627 346.64 77.543 347.12 77.543C347.62 77.543 348.05 77.645 348.42 77.848C348.79 78.047 349.08 78.32 349.29 78.668C349.51 79.012 349.63 79.402 349.65 79.84H348.62C348.6 79.578 348.52 79.342 348.39 79.131C348.27 78.92 348.1 78.752 347.88 78.627C347.66 78.498 347.41 78.434 347.12 78.434C346.79 78.434 346.51 78.5 346.28 78.633C346.06 78.762 345.88 78.938 345.75 79.16C345.62 79.379 345.53 79.623 345.47 79.893C345.41 80.158 345.39 80.43 345.39 80.707V80.953C345.39 81.23 345.41 81.504 345.47 81.773C345.52 82.043 345.62 82.287 345.74 82.506C345.88 82.725 346.05 82.9 346.28 83.033C346.5 83.162 346.79 83.227 347.12 83.227ZM352.65 83.344L354.41 77.66H355.57L353.03 84.979C352.97 85.135 352.89 85.303 352.79 85.482C352.7 85.666 352.58 85.84 352.43 86.004C352.28 86.168 352.1 86.301 351.89 86.402C351.68 86.508 351.44 86.561 351.15 86.561C351.06 86.561 350.95 86.549 350.82 86.525C350.69 86.502 350.59 86.482 350.54 86.467L350.53 85.588C350.56 85.592 350.61 85.596 350.68 85.6C350.75 85.607 350.8 85.611 350.82 85.611C351.07 85.611 351.28 85.578 351.45 85.512C351.62 85.449 351.77 85.342 351.88 85.189C352.01 85.041 352.11 84.836 352.2 84.574L352.65 83.344ZM351.35 77.66L353 82.582L353.28 83.725L352.5 84.123L350.17 77.66H351.35ZM359 83.227C359.26 83.227 359.5 83.174 359.72 83.068C359.94 82.963 360.12 82.818 360.26 82.635C360.4 82.447 360.48 82.234 360.5 81.996H361.53C361.51 82.371 361.38 82.721 361.15 83.045C360.92 83.365 360.62 83.625 360.24 83.824C359.87 84.02 359.45 84.117 359 84.117C358.53 84.117 358.11 84.033 357.76 83.865C357.4 83.697 357.11 83.467 356.88 83.174C356.65 82.881 356.47 82.545 356.36 82.166C356.24 81.783 356.19 81.379 356.19 80.953V80.707C356.19 80.281 356.24 79.879 356.36 79.5C356.47 79.117 356.65 78.779 356.88 78.486C357.11 78.193 357.4 77.963 357.76 77.795C358.11 77.627 358.53 77.543 359 77.543C359.5 77.543 359.93 77.645 360.3 77.848C360.68 78.047 360.97 78.32 361.18 78.668C361.39 79.012 361.51 79.402 361.53 79.84H360.5C360.48 79.578 360.4 79.342 360.28 79.131C360.15 78.92 359.98 78.752 359.76 78.627C359.54 78.498 359.29 78.434 359 78.434C358.67 78.434 358.39 78.5 358.17 78.633C357.94 78.762 357.77 78.938 357.63 79.16C357.5 79.379 357.41 79.623 357.35 79.893C357.3 80.158 357.27 80.43 357.27 80.707V80.953C357.27 81.23 357.3 81.504 357.35 81.773C357.41 82.043 357.5 82.287 357.63 82.506C357.76 82.725 357.94 82.9 358.16 83.033C358.39 83.162 358.67 83.227 359 83.227ZM363.93 75V84H362.84V75H363.93ZM368.3 84.117C367.86 84.117 367.46 84.043 367.1 83.895C366.74 83.742 366.43 83.529 366.18 83.256C365.92 82.982 365.73 82.658 365.59 82.283C365.45 81.908 365.38 81.498 365.38 81.053V80.807C365.38 80.291 365.46 79.832 365.61 79.43C365.77 79.023 365.97 78.68 366.23 78.398C366.5 78.117 366.79 77.904 367.12 77.76C367.46 77.615 367.8 77.543 368.16 77.543C368.61 77.543 369 77.621 369.33 77.777C369.66 77.934 369.93 78.152 370.14 78.434C370.35 78.711 370.51 79.039 370.61 79.418C370.71 79.793 370.76 80.203 370.76 80.648V81.135H366.03V80.25H369.68V80.168C369.66 79.887 369.61 79.613 369.5 79.348C369.41 79.082 369.25 78.863 369.04 78.691C368.82 78.52 368.53 78.434 368.16 78.434C367.91 78.434 367.68 78.486 367.48 78.592C367.27 78.693 367.09 78.846 366.94 79.049C366.79 79.252 366.68 79.5 366.6 79.793C366.52 80.086 366.47 80.424 366.47 80.807V81.053C366.47 81.354 366.52 81.637 366.6 81.902C366.68 82.164 366.81 82.395 366.97 82.594C367.13 82.793 367.33 82.949 367.56 83.062C367.79 83.176 368.06 83.232 368.36 83.232C368.74 83.232 369.06 83.154 369.33 82.998C369.59 82.842 369.83 82.633 370.03 82.371L370.68 82.893C370.54 83.1 370.37 83.297 370.16 83.484C369.95 83.672 369.69 83.824 369.38 83.941C369.08 84.059 368.71 84.117 368.3 84.117ZM376.03 82.77V75H377.12V84H376.12L376.03 82.77ZM371.76 80.9V80.777C371.76 80.293 371.82 79.854 371.94 79.459C372.06 79.061 372.23 78.719 372.45 78.434C372.67 78.148 372.93 77.93 373.24 77.777C373.54 77.621 373.89 77.543 374.27 77.543C374.67 77.543 375.01 77.613 375.31 77.754C375.61 77.891 375.87 78.092 376.07 78.357C376.28 78.619 376.45 78.936 376.57 79.307C376.69 79.678 376.78 80.098 376.82 80.566V81.105C376.78 81.57 376.7 81.988 376.57 82.359C376.45 82.73 376.28 83.047 376.07 83.309C375.87 83.57 375.61 83.771 375.31 83.912C375.01 84.049 374.66 84.117 374.26 84.117C373.88 84.117 373.54 84.037 373.24 83.877C372.93 83.717 372.67 83.492 372.45 83.203C372.23 82.914 372.06 82.574 371.94 82.184C371.82 81.789 371.76 81.361 371.76 80.9ZM372.85 80.777V80.9C372.85 81.217 372.88 81.514 372.94 81.791C373.01 82.068 373.11 82.312 373.25 82.523C373.38 82.734 373.56 82.9 373.77 83.021C373.98 83.139 374.23 83.197 374.53 83.197C374.88 83.197 375.18 83.121 375.41 82.969C375.64 82.816 375.83 82.615 375.97 82.365C376.11 82.115 376.22 81.844 376.3 81.551V80.139C376.25 79.924 376.19 79.717 376.1 79.518C376.01 79.314 375.9 79.135 375.76 78.979C375.62 78.818 375.45 78.691 375.25 78.598C375.05 78.504 374.81 78.457 374.54 78.457C374.24 78.457 373.98 78.52 373.77 78.645C373.56 78.766 373.38 78.934 373.25 79.148C373.11 79.359 373.01 79.605 372.94 79.887C372.88 80.164 372.85 80.461 372.85 80.777ZM384.32 83.227C384.57 83.227 384.81 83.174 385.03 83.068C385.25 82.963 385.43 82.818 385.57 82.635C385.71 82.447 385.79 82.234 385.81 81.996H386.84C386.82 82.371 386.7 82.721 386.46 83.045C386.23 83.365 385.93 83.625 385.55 83.824C385.18 84.02 384.77 84.117 384.32 84.117C383.84 84.117 383.42 84.033 383.07 83.865C382.72 83.697 382.42 83.467 382.19 83.174C381.96 82.881 381.79 82.545 381.67 82.166C381.55 81.783 381.5 81.379 381.5 80.953V80.707C381.5 80.281 381.55 79.879 381.67 79.5C381.79 79.117 381.96 78.779 382.19 78.486C382.42 78.193 382.72 77.963 383.07 77.795C383.42 77.627 383.84 77.543 384.32 77.543C384.81 77.543 385.25 77.645 385.62 77.848C385.99 78.047 386.28 78.32 386.49 78.668C386.71 79.012 386.82 79.402 386.84 79.84H385.81C385.79 79.578 385.72 79.342 385.59 79.131C385.46 78.92 385.29 78.752 385.07 78.627C384.86 78.498 384.61 78.434 384.32 78.434C383.98 78.434 383.71 78.5 383.48 78.633C383.26 78.762 383.08 78.938 382.95 79.16C382.82 79.379 382.72 79.623 382.66 79.893C382.61 80.158 382.58 80.43 382.58 80.707V80.953C382.58 81.23 382.61 81.504 382.66 81.773C382.72 82.043 382.81 82.287 382.94 82.506C383.07 82.725 383.25 82.9 383.47 83.033C383.7 83.162 383.98 83.227 384.32 83.227ZM387.77 80.9V80.766C387.77 80.309 387.84 79.885 387.97 79.494C388.11 79.1 388.3 78.758 388.55 78.469C388.8 78.176 389.1 77.949 389.46 77.789C389.81 77.625 390.21 77.543 390.65 77.543C391.1 77.543 391.5 77.625 391.85 77.789C392.21 77.949 392.52 78.176 392.77 78.469C393.02 78.758 393.21 79.1 393.35 79.494C393.48 79.885 393.54 80.309 393.54 80.766V80.9C393.54 81.357 393.48 81.781 393.35 82.172C393.21 82.562 393.02 82.904 392.77 83.197C392.52 83.486 392.21 83.713 391.86 83.877C391.51 84.037 391.11 84.117 390.66 84.117C390.22 84.117 389.82 84.037 389.46 83.877C389.11 83.713 388.8 83.486 388.55 83.197C388.3 82.904 388.11 82.562 387.97 82.172C387.84 81.781 387.77 81.357 387.77 80.9ZM388.86 80.766V80.9C388.86 81.217 388.89 81.516 388.97 81.797C389.04 82.074 389.15 82.32 389.3 82.535C389.46 82.75 389.64 82.92 389.87 83.045C390.1 83.166 390.36 83.227 390.66 83.227C390.96 83.227 391.22 83.166 391.44 83.045C391.67 82.92 391.86 82.75 392 82.535C392.15 82.32 392.26 82.074 392.34 81.797C392.42 81.516 392.46 81.217 392.46 80.9V80.766C392.46 80.453 392.42 80.158 392.34 79.881C392.26 79.6 392.15 79.352 392 79.137C391.85 78.918 391.66 78.746 391.44 78.621C391.21 78.496 390.95 78.434 390.65 78.434C390.35 78.434 390.09 78.496 389.87 78.621C389.64 78.746 389.46 78.918 389.3 79.137C389.15 79.352 389.04 79.6 388.97 79.881C388.89 80.158 388.86 80.453 388.86 80.766ZM395.99 79.014V84H394.9V77.66H395.93L395.99 79.014ZM395.73 80.59L395.28 80.572C395.28 80.139 395.35 79.738 395.47 79.371C395.6 79 395.77 78.678 396 78.404C396.23 78.131 396.5 77.92 396.81 77.771C397.12 77.619 397.47 77.543 397.86 77.543C398.17 77.543 398.45 77.586 398.7 77.672C398.95 77.754 399.16 77.887 399.34 78.07C399.52 78.254 399.66 78.492 399.75 78.785C399.84 79.074 399.89 79.428 399.89 79.846V84H398.8V79.834C398.8 79.502 398.75 79.236 398.65 79.037C398.56 78.834 398.41 78.688 398.23 78.598C398.04 78.504 397.81 78.457 397.54 78.457C397.27 78.457 397.02 78.514 396.8 78.627C396.58 78.74 396.39 78.896 396.23 79.096C396.07 79.295 395.95 79.523 395.86 79.781C395.77 80.035 395.73 80.305 395.73 80.59ZM404.19 77.66V78.492H400.76V77.66H404.19ZM401.92 76.119H403.01V82.43C403.01 82.645 403.04 82.807 403.11 82.916C403.17 83.025 403.26 83.098 403.37 83.133C403.47 83.168 403.58 83.186 403.71 83.186C403.79 83.186 403.89 83.178 403.99 83.162C404.09 83.143 404.16 83.127 404.21 83.115L404.22 84C404.13 84.027 404.02 84.053 403.88 84.076C403.74 84.104 403.58 84.117 403.38 84.117C403.12 84.117 402.87 84.064 402.65 83.959C402.43 83.854 402.25 83.678 402.12 83.432C401.99 83.182 401.92 82.846 401.92 82.424V76.119ZM408.09 84.117C407.65 84.117 407.25 84.043 406.89 83.895C406.54 83.742 406.23 83.529 405.97 83.256C405.72 82.982 405.52 82.658 405.39 82.283C405.25 81.908 405.18 81.498 405.18 81.053V80.807C405.18 80.291 405.26 79.832 405.41 79.43C405.56 79.023 405.77 78.68 406.03 78.398C406.29 78.117 406.59 77.904 406.92 77.76C407.25 77.615 407.6 77.543 407.95 77.543C408.41 77.543 408.8 77.621 409.12 77.777C409.46 77.934 409.73 78.152 409.94 78.434C410.15 78.711 410.31 79.039 410.41 79.418C410.51 79.793 410.56 80.203 410.56 80.648V81.135H405.83V80.25H409.48V80.168C409.46 79.887 409.4 79.613 409.3 79.348C409.2 79.082 409.05 78.863 408.83 78.691C408.62 78.52 408.32 78.434 407.95 78.434C407.71 78.434 407.48 78.486 407.27 78.592C407.07 78.693 406.89 78.846 406.74 79.049C406.59 79.252 406.48 79.5 406.39 79.793C406.31 80.086 406.27 80.424 406.27 80.807V81.053C406.27 81.354 406.31 81.637 406.39 81.902C406.48 82.164 406.6 82.395 406.76 82.594C406.93 82.793 407.12 82.949 407.36 83.062C407.59 83.176 407.86 83.232 408.15 83.232C408.54 83.232 408.86 83.154 409.12 82.998C409.39 82.842 409.62 82.633 409.82 82.371L410.48 82.893C410.34 83.1 410.17 83.297 409.96 83.484C409.75 83.672 409.49 83.824 409.18 83.941C408.87 84.059 408.51 84.117 408.09 84.117ZM412.91 79.014V84H411.83V77.66H412.85L412.91 79.014ZM412.65 80.59L412.2 80.572C412.21 80.139 412.27 79.738 412.39 79.371C412.52 79 412.7 78.678 412.92 78.404C413.15 78.131 413.42 77.92 413.73 77.771C414.05 77.619 414.4 77.543 414.78 77.543C415.09 77.543 415.37 77.586 415.62 77.672C415.87 77.754 416.09 77.887 416.26 78.07C416.44 78.254 416.58 78.492 416.67 78.785C416.77 79.074 416.81 79.428 416.81 79.846V84H415.72V79.834C415.72 79.502 415.67 79.236 415.58 79.037C415.48 78.834 415.34 78.688 415.15 78.598C414.96 78.504 414.73 78.457 414.46 78.457C414.19 78.457 413.94 78.514 413.72 78.627C413.5 78.74 413.31 78.896 413.15 79.096C412.99 79.295 412.87 79.523 412.78 79.781C412.7 80.035 412.65 80.305 412.65 80.59ZM421.11 77.66V78.492H417.69V77.66H421.11ZM418.85 76.119H419.93V82.43C419.93 82.645 419.96 82.807 420.03 82.916C420.1 83.025 420.18 83.098 420.29 83.133C420.39 83.168 420.51 83.186 420.63 83.186C420.72 83.186 420.81 83.178 420.91 83.162C421.01 83.143 421.09 83.127 421.14 83.115V84C421.06 84.027 420.94 84.053 420.8 84.076C420.67 84.104 420.5 84.117 420.3 84.117C420.04 84.117 419.79 84.064 419.57 83.959C419.35 83.854 419.17 83.678 419.04 83.432C418.91 83.182 418.85 82.846 418.85 82.424V76.119Z" fill="#F3F5F6"/>
<path d="M37.5 136.5L58.375 116.596C58.79 116.2 59.248 115.849 59.739 115.551L96 93.5L115 160.5L152.5 171.764H191.34L209.5 121.5H235.5L279 82L296 108" stroke="#D1841E"/>
<path d="M37 140C38.6569 140 40 138.657 40 137C40 135.343 38.6569 134 37 134C35.3431 134 34 135.343 34 137C34 138.657 35.3431 140 37 140Z" fill="#102229" stroke="#D1841E" stroke-width="2"/>
<path d="M60 119C61.6569 119 63 117.657 63 116C63 114.343 61.6569 113 60 113C58.3431 113 57 114.343 57 116C57 117.657 58.3431 119 60 119Z" fill="#102229" stroke="#D1841E" stroke-width="2"/>
<path d="M96 97C97.6569 97 99 95.6569 99 94C99 92.3431 97.6569 91 96 91C94.3431 91 93 92.3431 93 94C93 95.6569 94.3431 97 96 97Z" fill="#102229" stroke="#D1841E" stroke-width="2"/>
<path d="M115 163C116.657 163 118 161.657 118 160C118 158.343 116.657 157 115 157C113.343 157 112 158.343 112 160C112 161.657 113.343 163 115 163Z" fill="#102229" stroke="#D1841E" stroke-width="2"/>
<path d="M152 175C153.657 175 155 173.657 155 172C155 170.343 153.657 169 152 169C150.343 169 149 170.343 149 172C149 173.657 150.343 175 152 175Z" fill="#102229" stroke="#D1841E" stroke-width="2"/>
<path d="M191 175C192.657 175 194 173.657 194 172C194 170.343 192.657 169 191 169C189.343 169 188 170.343 188 172C188 173.657 189.343 175 191 175Z" fill="#102229" stroke="#D1841E" stroke-width="2"/>
<path d="M210 124C211.657 124 213 122.657 213 121C213 119.343 211.657 118 210 118C208.343 118 207 119.343 207 121C207 122.657 208.343 124 210 124Z" fill="#102229" stroke="#D1841E" stroke-width="2"/>
<path d="M236 124C237.657 124 239 122.657 239 121C239 119.343 237.657 118 236 118C234.343 118 233 119.343 233 121C233 122.657 234.343 124 236 124Z" fill="#102229" stroke="#D1841E" stroke-width="2"/>
<path d="M279 85C280.657 85 282 83.6569 282 82C282 80.3431 280.657 79 279 79C277.343 79 276 80.3431 276 82C276 83.6569 277.343 85 279 85Z" fill="#102229" stroke="#D1841E" stroke-width="2"/>
<path d="M296 111C297.657 111 299 109.657 299 108C299 106.343 297.657 105 296 105C294.343 105 293 106.343 293 108C293 109.657 294.343 111 296 111Z" fill="#102229" stroke="#D1841E" stroke-width="2"/>
<path d="M304 190L298 193.464V186.536L304 190Z" fill="#2C5264"/>
<path d="M32.0001 75L35.4641 81H28.5361L32.0001 75Z" fill="#2C5264"/>
<defs>
<linearGradient id="paint0_linear_59_246" x1="166" y1="190" x2="166" y2="78" gradientUnits="userSpaceOnUse">
<stop stop-color="#1D414F"/>
<stop offset="1" stop-color="#0E2027"/>
</linearGradient>
</defs>
</svg>
