<svg width="540" height="57" viewBox="0 0 540 57" fill="none" xmlns="http://www.w3.org/2000/svg">
<path d="M133 8.5C133 4.358 136.358 1 140.5 1H531.5C535.642 1 539 4.358 539 8.5V48.5C539 52.642 535.642 56 531.5 56H140.5C136.358 56 133 52.642 133 48.5V8.5Z" fill="#224253" stroke="#335C70"/>
<path d="M155.5 1H8.5C4.35786 1 1 4.35786 1 8.5V48.5C1 52.6421 4.35786 56 8.5 56H155.5C159.642 56 163 52.6421 163 48.5V8.5C163 4.35786 159.642 1 155.5 1Z" fill="#10222A" stroke="#335C70"/>
<path d="M47 36H45.5V29.25C45.5 29.245 45.5 29.242 45.5 29.237C45.5 29.232 45.5 29.21 45.5 29.197C45.5 29.183 45.5 29.17 45.5 29.158C45.5 29.153 45.5 29.149 45.5 29.144L44.094 19.288C44.041 18.93 43.861 18.602 43.587 18.366C43.312 18.129 42.962 17.999 42.599 18H40.901C40.54 18.002 40.192 18.132 39.919 18.369C39.647 18.605 39.468 18.931 39.416 19.288L38.332 26.873L34.7 24.15C34.589 24.066 34.456 24.016 34.317 24.003C34.179 23.991 34.039 24.017 33.915 24.079C33.79 24.141 33.685 24.237 33.612 24.356C33.539 24.474 33.5 24.611 33.5 24.75V27.75L28.7 24.15C28.589 24.066 28.456 24.016 28.317 24.003C28.179 23.991 28.039 24.017 27.915 24.079C27.79 24.141 27.685 24.237 27.612 24.356C27.539 24.474 27.5 24.611 27.5 24.75V36H26C25.801 36 25.61 36.079 25.47 36.22C25.329 36.36 25.25 36.551 25.25 36.75C25.25 36.949 25.329 37.14 25.47 37.28C25.61 37.421 25.801 37.5 26 37.5H47C47.199 37.5 47.39 37.421 47.53 37.28C47.671 37.14 47.75 36.949 47.75 36.75C47.75 36.551 47.671 36.36 47.53 36.22C47.39 36.079 47.199 36 47 36ZM34.625 33.75H32C31.801 33.75 31.61 33.671 31.47 33.53C31.329 33.39 31.25 33.199 31.25 33C31.25 32.801 31.329 32.61 31.47 32.47C31.61 32.329 31.801 32.25 32 32.25H34.625C34.824 32.25 35.015 32.329 35.155 32.47C35.296 32.61 35.375 32.801 35.375 33C35.375 33.199 35.296 33.39 35.155 33.53C35.015 33.671 34.824 33.75 34.625 33.75ZM41 33.75H38.375C38.176 33.75 37.985 33.671 37.845 33.53C37.704 33.39 37.625 33.199 37.625 33C37.625 32.801 37.704 32.61 37.845 32.47C37.985 32.329 38.176 32.25 38.375 32.25H41C41.199 32.25 41.39 32.329 41.53 32.47C41.671 32.61 41.75 32.801 41.75 33C41.75 33.199 41.671 33.39 41.53 33.53C41.39 33.671 41.199 33.75 41 33.75ZM40.5 28.5L39.701 27.9L40.901 19.5H42.599L43.886 28.5H40.5Z" fill="#F3F5F6"/>
<path d="M65.9772 29.258H63.0163V27.703H65.9772C66.4922 27.703 66.9092 27.62 67.2272 27.453C67.5442 27.286 67.7762 27.057 67.9222 26.766C68.0732 26.469 68.1482 26.13 68.1482 25.75C68.1482 25.391 68.0732 25.055 67.9222 24.742C67.7762 24.424 67.5442 24.169 67.2272 23.977C66.9092 23.784 66.4922 23.688 65.9772 23.688H63.6172V33.5H61.6562V22.125H65.9772C66.8572 22.125 67.6042 22.281 68.2192 22.594C68.8392 22.901 69.3102 23.328 69.6332 23.875C69.9562 24.417 70.1172 25.036 70.1172 25.734C70.1172 26.469 69.9562 27.099 69.6332 27.625C69.3102 28.151 68.8392 28.555 68.2192 28.836C67.6042 29.117 66.8572 29.258 65.9772 29.258ZM73.5782 26.656V33.5H71.6953V25.047H73.4922L73.5782 26.656ZM76.1642 24.992L76.1482 26.742C76.0342 26.721 75.9092 26.706 75.7732 26.695C75.6432 26.685 75.5132 26.68 75.3832 26.68C75.0602 26.68 74.7763 26.727 74.5312 26.82C74.2862 26.909 74.0812 27.039 73.9142 27.211C73.7532 27.378 73.6282 27.581 73.5392 27.82C73.4512 28.06 73.3982 28.328 73.3832 28.625L72.9532 28.656C72.9532 28.125 73.0052 27.633 73.1092 27.18C73.2142 26.727 73.3702 26.328 73.5782 25.984C73.7922 25.641 74.0572 25.372 74.3752 25.18C74.6982 24.987 75.0702 24.891 75.4922 24.891C75.6072 24.891 75.7292 24.901 75.8592 24.922C75.9952 24.943 76.0962 24.966 76.1642 24.992ZM76.7812 29.367V29.188C76.7812 28.578 76.8702 28.013 77.0472 27.492C77.2242 26.966 77.4792 26.51 77.8122 26.125C78.1512 25.734 78.5622 25.432 79.0472 25.219C79.5362 25 80.0892 24.891 80.7032 24.891C81.3232 24.891 81.8752 25 82.3592 25.219C82.8492 25.432 83.2632 25.734 83.6022 26.125C83.9402 26.51 84.1982 26.966 84.3752 27.492C84.5522 28.013 84.6413 28.578 84.6413 29.188V29.367C84.6413 29.977 84.5522 30.542 84.3752 31.062C84.1982 31.583 83.9402 32.039 83.6022 32.43C83.2632 32.815 82.8522 33.117 82.3672 33.336C81.8832 33.549 81.3332 33.656 80.7192 33.656C80.0992 33.656 79.5442 33.549 79.0552 33.336C78.5702 33.117 78.1593 32.815 77.8203 32.43C77.4823 32.039 77.2242 31.583 77.0472 31.062C76.8702 30.542 76.7812 29.977 76.7812 29.367ZM78.6642 29.188V29.367C78.6642 29.747 78.7032 30.107 78.7812 30.445C78.8593 30.784 78.9822 31.081 79.1482 31.336C79.3152 31.591 79.5292 31.792 79.7892 31.938C80.0492 32.083 80.3592 32.156 80.7192 32.156C81.0682 32.156 81.3702 32.083 81.6252 31.938C81.8852 31.792 82.0993 31.591 82.2663 31.336C82.4323 31.081 82.5552 30.784 82.6332 30.445C82.7162 30.107 82.7582 29.747 82.7582 29.367V29.188C82.7582 28.812 82.7162 28.458 82.6332 28.125C82.5552 27.786 82.4302 27.487 82.2582 27.227C82.0912 26.966 81.8782 26.763 81.6172 26.617C81.3622 26.466 81.0572 26.391 80.7032 26.391C80.3492 26.391 80.0423 26.466 79.7812 26.617C79.5263 26.763 79.3152 26.966 79.1482 27.227C78.9822 27.487 78.8593 27.786 78.7812 28.125C78.7032 28.458 78.6642 28.812 78.6642 29.188ZM91.3752 31.75V21.5H93.2663V33.5H91.5552L91.3752 31.75ZM85.8752 29.367V29.203C85.8752 28.562 85.9512 27.979 86.1022 27.453C86.2532 26.922 86.4712 26.466 86.7582 26.086C87.0442 25.701 87.3932 25.406 87.8052 25.203C88.2162 24.995 88.6803 24.891 89.1953 24.891C89.7063 24.891 90.1542 24.99 90.5392 25.188C90.9242 25.385 91.2532 25.669 91.5232 26.039C91.7942 26.404 92.0102 26.841 92.1722 27.352C92.3332 27.857 92.4483 28.419 92.5163 29.039V29.562C92.4483 30.167 92.3332 30.719 92.1722 31.219C92.0102 31.719 91.7942 32.151 91.5232 32.516C91.2532 32.88 90.9223 33.161 90.5312 33.359C90.1463 33.557 89.6952 33.656 89.1802 33.656C88.6692 33.656 88.2082 33.549 87.7972 33.336C87.3912 33.122 87.0442 32.823 86.7582 32.438C86.4712 32.052 86.2532 31.599 86.1022 31.078C85.9512 30.552 85.8752 29.982 85.8752 29.367ZM87.7582 29.203V29.367C87.7582 29.753 87.7922 30.112 87.8592 30.445C87.9322 30.779 88.0443 31.073 88.1953 31.328C88.3463 31.578 88.5423 31.776 88.7812 31.922C89.0263 32.062 89.3183 32.133 89.6562 32.133C90.0832 32.133 90.4352 32.039 90.7112 31.852C90.9872 31.664 91.2032 31.411 91.3592 31.094C91.5212 30.771 91.6302 30.411 91.6882 30.016V28.602C91.6562 28.294 91.5912 28.008 91.4922 27.742C91.3982 27.477 91.2712 27.245 91.1092 27.047C90.9482 26.844 90.7472 26.688 90.5082 26.578C90.2732 26.464 89.9952 26.406 89.6722 26.406C89.3282 26.406 89.0362 26.479 88.7972 26.625C88.5572 26.771 88.3592 26.971 88.2032 27.227C88.0522 27.482 87.9402 27.779 87.8672 28.117C87.7942 28.456 87.7582 28.818 87.7582 29.203ZM100.32 31.508V25.047H102.211V33.5H100.43L100.32 31.508ZM100.586 29.75L101.219 29.734C101.219 30.302 101.156 30.826 101.031 31.305C100.906 31.779 100.714 32.193 100.453 32.547C100.193 32.896 99.8592 33.169 99.4532 33.367C99.0472 33.56 98.5602 33.656 97.9922 33.656C97.5812 33.656 97.2032 33.596 96.8592 33.477C96.5162 33.357 96.2192 33.172 95.9692 32.922C95.7242 32.672 95.5342 32.346 95.3982 31.945C95.2632 31.544 95.1953 31.065 95.1953 30.508V25.047H97.0782V30.523C97.0782 30.831 97.1152 31.089 97.1882 31.297C97.2602 31.5 97.3592 31.664 97.4842 31.789C97.6092 31.914 97.7552 32.003 97.9222 32.055C98.0892 32.107 98.2662 32.133 98.4532 32.133C98.9902 32.133 99.4112 32.029 99.7192 31.82C100.031 31.607 100.253 31.32 100.383 30.961C100.518 30.602 100.586 30.198 100.586 29.75ZM107.594 32.156C107.901 32.156 108.177 32.096 108.422 31.977C108.672 31.852 108.872 31.68 109.023 31.461C109.18 31.242 109.266 30.99 109.281 30.703H111.055C111.044 31.25 110.883 31.747 110.57 32.195C110.258 32.643 109.844 33 109.328 33.266C108.812 33.526 108.242 33.656 107.617 33.656C106.971 33.656 106.409 33.547 105.93 33.328C105.451 33.104 105.052 32.797 104.734 32.406C104.417 32.016 104.177 31.565 104.016 31.055C103.859 30.544 103.781 29.997 103.781 29.414V29.141C103.781 28.557 103.859 28.01 104.016 27.5C104.177 26.984 104.417 26.531 104.734 26.141C105.052 25.75 105.451 25.445 105.93 25.227C106.409 25.003 106.969 24.891 107.609 24.891C108.286 24.891 108.88 25.026 109.391 25.297C109.901 25.562 110.302 25.935 110.594 26.414C110.891 26.888 111.044 27.44 111.055 28.07H109.281C109.266 27.758 109.188 27.477 109.047 27.227C108.911 26.971 108.719 26.768 108.469 26.617C108.224 26.466 107.93 26.391 107.586 26.391C107.206 26.391 106.891 26.469 106.641 26.625C106.391 26.776 106.195 26.984 106.055 27.25C105.914 27.51 105.812 27.805 105.75 28.133C105.693 28.456 105.664 28.792 105.664 29.141V29.414C105.664 29.763 105.693 30.102 105.75 30.43C105.807 30.758 105.906 31.052 106.047 31.312C106.193 31.568 106.391 31.773 106.641 31.93C106.891 32.081 107.208 32.156 107.594 32.156ZM116.375 25.047V26.422H111.609V25.047H116.375ZM112.984 22.977H114.867V31.164C114.867 31.424 114.904 31.625 114.977 31.766C115.055 31.901 115.161 31.992 115.297 32.039C115.432 32.086 115.591 32.109 115.773 32.109C115.904 32.109 116.029 32.102 116.148 32.086C116.268 32.07 116.365 32.055 116.438 32.039L116.445 33.477C116.289 33.523 116.107 33.565 115.898 33.602C115.695 33.638 115.461 33.656 115.195 33.656C114.763 33.656 114.38 33.581 114.047 33.43C113.714 33.273 113.453 33.021 113.266 32.672C113.078 32.323 112.984 31.859 112.984 31.281V22.977ZM119.844 25.047V33.5H117.953V25.047H119.844ZM117.828 22.828C117.828 22.542 117.922 22.305 118.109 22.117C118.302 21.924 118.568 21.828 118.906 21.828C119.24 21.828 119.503 21.924 119.695 22.117C119.888 22.305 119.984 22.542 119.984 22.828C119.984 23.109 119.888 23.344 119.695 23.531C119.503 23.719 119.24 23.812 118.906 23.812C118.568 23.812 118.302 23.719 118.109 23.531C117.922 23.344 117.828 23.109 117.828 22.828ZM121.547 29.367V29.188C121.547 28.578 121.635 28.013 121.812 27.492C121.99 26.966 122.245 26.51 122.578 26.125C122.917 25.734 123.328 25.432 123.812 25.219C124.302 25 124.854 24.891 125.469 24.891C126.089 24.891 126.641 25 127.125 25.219C127.615 25.432 128.029 25.734 128.367 26.125C128.706 26.51 128.964 26.966 129.141 27.492C129.318 28.013 129.406 28.578 129.406 29.188V29.367C129.406 29.977 129.318 30.542 129.141 31.062C128.964 31.583 128.706 32.039 128.367 32.43C128.029 32.815 127.617 33.117 127.133 33.336C126.648 33.549 126.099 33.656 125.484 33.656C124.865 33.656 124.31 33.549 123.82 33.336C123.336 33.117 122.924 32.815 122.586 32.43C122.247 32.039 121.99 31.583 121.812 31.062C121.635 30.542 121.547 29.977 121.547 29.367ZM123.43 29.188V29.367C123.43 29.747 123.469 30.107 123.547 30.445C123.625 30.784 123.747 31.081 123.914 31.336C124.081 31.591 124.294 31.792 124.555 31.938C124.815 32.083 125.125 32.156 125.484 32.156C125.833 32.156 126.135 32.083 126.391 31.938C126.651 31.792 126.865 31.591 127.031 31.336C127.198 31.081 127.32 30.784 127.398 30.445C127.482 30.107 127.523 29.747 127.523 29.367V29.188C127.523 28.812 127.482 28.458 127.398 28.125C127.32 27.786 127.195 27.487 127.023 27.227C126.857 26.966 126.643 26.763 126.383 26.617C126.128 26.466 125.823 26.391 125.469 26.391C125.115 26.391 124.807 26.466 124.547 26.617C124.292 26.763 124.081 26.966 123.914 27.227C123.747 27.487 123.625 27.786 123.547 28.125C123.469 28.458 123.43 28.812 123.43 29.188ZM132.852 26.852V33.5H130.969V25.047H132.742L132.852 26.852ZM132.516 28.961L131.906 28.953C131.911 28.354 131.995 27.805 132.156 27.305C132.323 26.805 132.552 26.375 132.844 26.016C133.141 25.656 133.495 25.38 133.906 25.188C134.318 24.99 134.776 24.891 135.281 24.891C135.688 24.891 136.055 24.948 136.383 25.062C136.716 25.172 137 25.352 137.234 25.602C137.474 25.852 137.656 26.177 137.781 26.578C137.906 26.974 137.969 27.461 137.969 28.039V33.5H136.078V28.031C136.078 27.625 136.018 27.305 135.898 27.07C135.784 26.831 135.615 26.661 135.391 26.562C135.172 26.458 134.898 26.406 134.57 26.406C134.247 26.406 133.958 26.474 133.703 26.609C133.448 26.745 133.232 26.93 133.055 27.164C132.883 27.398 132.75 27.669 132.656 27.977C132.562 28.284 132.516 28.612 132.516 28.961Z" fill="#F3F5F6"/>
<path d="M210.697 27.469L209.384 24.188C209.273 23.91 209.08 23.672 208.832 23.505C208.584 23.338 208.291 23.249 207.992 23.25H204.75V22.5C204.75 22.301 204.671 22.11 204.53 21.97C204.39 21.829 204.199 21.75 204 21.75H189.75C189.352 21.75 188.971 21.908 188.689 22.189C188.408 22.471 188.25 22.852 188.25 23.25V33.75C188.25 34.148 188.408 34.529 188.689 34.811C188.971 35.092 189.352 35.25 189.75 35.25H191.344C191.509 35.895 191.884 36.467 192.41 36.876C192.937 37.284 193.584 37.506 194.25 37.506C194.916 37.506 195.563 37.284 196.09 36.876C196.616 36.467 196.991 35.895 197.156 35.25H201.844C202.009 35.895 202.384 36.467 202.91 36.876C203.437 37.284 204.084 37.506 204.75 37.506C205.416 37.506 206.063 37.284 206.59 36.876C207.116 36.467 207.491 35.895 207.656 35.25H209.25C209.648 35.25 210.029 35.092 210.311 34.811C210.592 34.529 210.75 34.148 210.75 33.75V27.75C210.75 27.654 210.732 27.558 210.697 27.469ZM194.25 36C193.953 36 193.663 35.912 193.417 35.747C193.17 35.582 192.978 35.348 192.864 35.074C192.751 34.8 192.721 34.498 192.779 34.207C192.837 33.916 192.98 33.649 193.189 33.439C193.399 33.23 193.666 33.087 193.957 33.029C194.248 32.971 194.55 33.001 194.824 33.114C195.098 33.228 195.332 33.42 195.497 33.667C195.662 33.913 195.75 34.203 195.75 34.5C195.75 34.898 195.592 35.279 195.311 35.561C195.029 35.842 194.648 36 194.25 36ZM189.75 29.25V23.25H203.25V29.25H189.75ZM204.75 36C204.453 36 204.163 35.912 203.917 35.747C203.67 35.582 203.478 35.348 203.364 35.074C203.251 34.8 203.221 34.498 203.279 34.207C203.337 33.916 203.48 33.649 203.689 33.439C203.899 33.23 204.166 33.087 204.457 33.029C204.748 32.971 205.05 33.001 205.324 33.114C205.598 33.228 205.832 33.42 205.997 33.667C206.162 33.913 206.25 34.203 206.25 34.5C206.25 34.898 206.092 35.279 205.811 35.561C205.529 35.842 205.148 36 204.75 36ZM204.75 27V24.75H207.992L208.892 27H204.75Z" fill="#CCD6DB"/>
<path d="M229.023 22.1248V33.4998H227.539V22.1248H229.023ZM232.68 22.1248V23.3588H223.891V22.1248H232.68ZM235 26.3748V33.4998H233.555V25.0468H234.961L235 26.3748ZM237.641 24.9998L237.633 26.3438C237.513 26.3177 237.398 26.3018 237.289 26.2968C237.185 26.2858 237.065 26.2808 236.93 26.2808C236.596 26.2808 236.302 26.3327 236.047 26.4377C235.792 26.5417 235.576 26.6878 235.398 26.8748C235.221 27.0618 235.081 27.2858 234.977 27.5468C234.878 27.8018 234.812 28.0827 234.781 28.3907L234.375 28.6248C234.375 28.1148 234.424 27.6347 234.523 27.1877C234.628 26.7397 234.786 26.3438 235 25.9998C235.214 25.6508 235.484 25.3797 235.812 25.1877C236.146 24.9897 236.542 24.8907 237 24.8907C237.104 24.8907 237.224 24.9037 237.359 24.9297C237.495 24.9507 237.589 24.9738 237.641 24.9998ZM243.648 32.0547V27.7028C243.648 27.3698 243.581 27.0808 243.445 26.8358C243.315 26.5858 243.117 26.3928 242.852 26.2578C242.586 26.1218 242.258 26.0547 241.867 26.0547C241.503 26.0547 241.182 26.1168 240.906 26.2418C240.635 26.3668 240.422 26.5308 240.266 26.7338C240.115 26.9378 240.039 27.1557 240.039 27.3907H238.594C238.594 27.0887 238.672 26.7888 238.828 26.4918C238.984 26.1948 239.208 25.9267 239.5 25.6877C239.797 25.4427 240.151 25.2498 240.562 25.1088C240.979 24.9638 241.443 24.8907 241.953 24.8907C242.568 24.8907 243.109 24.9948 243.578 25.2028C244.052 25.4108 244.422 25.7268 244.688 26.1478C244.958 26.5648 245.094 27.0888 245.094 27.7188V31.6558C245.094 31.9378 245.117 32.2367 245.164 32.5547C245.216 32.8717 245.292 33.1458 245.391 33.3748V33.4998H243.883C243.81 33.3328 243.753 33.1118 243.711 32.8358C243.669 32.5548 243.648 32.2937 243.648 32.0547ZM243.898 28.3748L243.914 29.3907H242.453C242.042 29.3907 241.674 29.4238 241.352 29.4918C241.029 29.5548 240.758 29.6508 240.539 29.7808C240.32 29.9108 240.154 30.0758 240.039 30.2728C239.924 30.4658 239.867 30.6928 239.867 30.9528C239.867 31.2188 239.927 31.4607 240.047 31.6797C240.167 31.8977 240.346 32.0728 240.586 32.2028C240.831 32.3278 241.13 32.3907 241.484 32.3907C241.927 32.3907 242.318 32.2968 242.656 32.1088C242.995 31.9218 243.263 31.6928 243.461 31.4218C243.664 31.1508 243.773 30.8878 243.789 30.6328L244.406 31.3278C244.37 31.5468 244.271 31.7887 244.109 32.0547C243.948 32.3197 243.732 32.5758 243.461 32.8198C243.195 33.0598 242.878 33.2598 242.508 33.4218C242.143 33.5778 241.732 33.6558 241.273 33.6558C240.701 33.6558 240.198 33.5438 239.766 33.3198C239.339 33.0958 239.005 32.7968 238.766 32.4218C238.531 32.0418 238.414 31.6168 238.414 31.1478C238.414 30.6948 238.503 30.2968 238.68 29.9528C238.857 29.6038 239.112 29.3148 239.445 29.0858C239.779 28.8518 240.18 28.6737 240.648 28.5547C241.117 28.4347 241.641 28.3748 242.219 28.3748H243.898ZM248.812 26.8517V33.4998H247.367V25.0468H248.734L248.812 26.8517ZM248.469 28.9528L247.867 28.9297C247.872 28.3517 247.958 27.8178 248.125 27.3278C248.292 26.8328 248.526 26.4038 248.828 26.0388C249.13 25.6738 249.49 25.3928 249.906 25.1948C250.328 24.9918 250.794 24.8907 251.305 24.8907C251.721 24.8907 252.096 24.9478 252.43 25.0618C252.763 25.1718 253.047 25.3487 253.281 25.5938C253.521 25.8388 253.703 26.1558 253.828 26.5468C253.953 26.9318 254.016 27.4038 254.016 27.9608V33.4998H252.562V27.9448C252.562 27.5028 252.497 27.1478 252.367 26.8828C252.237 26.6118 252.047 26.4168 251.797 26.2968C251.547 26.1718 251.24 26.1088 250.875 26.1088C250.516 26.1088 250.188 26.1848 249.891 26.3358C249.599 26.4868 249.346 26.6948 249.133 26.9608C248.924 27.2268 248.76 27.5308 248.641 27.8748C248.526 28.2138 248.469 28.5728 248.469 28.9528ZM261.133 31.2578C261.133 31.0488 261.086 30.8567 260.992 30.6797C260.904 30.4967 260.719 30.3327 260.438 30.1877C260.161 30.0357 259.745 29.9058 259.188 29.7968C258.719 29.6978 258.294 29.5808 257.914 29.4448C257.539 29.3098 257.219 29.1458 256.953 28.9528C256.693 28.7598 256.492 28.5338 256.352 28.2728C256.211 28.0128 256.141 27.7078 256.141 27.3588C256.141 27.0258 256.214 26.7108 256.359 26.4138C256.51 26.1168 256.721 25.8538 256.992 25.6248C257.268 25.3958 257.599 25.2158 257.984 25.0858C258.37 24.9558 258.799 24.8907 259.273 24.8907C259.951 24.8907 260.529 25.0098 261.008 25.2498C261.487 25.4898 261.854 25.8098 262.109 26.2108C262.365 26.6068 262.492 27.0468 262.492 27.5308H261.047C261.047 27.2968 260.977 27.0697 260.836 26.8517C260.701 26.6277 260.5 26.4428 260.234 26.2968C259.974 26.1508 259.654 26.0778 259.273 26.0778C258.872 26.0778 258.547 26.1407 258.297 26.2657C258.052 26.3847 257.872 26.5387 257.758 26.7267C257.648 26.9137 257.594 27.1118 257.594 27.3198C257.594 27.4768 257.62 27.6168 257.672 27.7418C257.729 27.8618 257.828 27.9738 257.969 28.0778C258.109 28.1768 258.307 28.2708 258.562 28.3588C258.818 28.4478 259.143 28.5358 259.539 28.6248C260.232 28.7808 260.802 28.9687 261.25 29.1877C261.698 29.4057 262.031 29.6738 262.25 29.9918C262.469 30.3098 262.578 30.6948 262.578 31.1478C262.578 31.5178 262.5 31.8568 262.344 32.1638C262.193 32.4708 261.971 32.7368 261.68 32.9608C261.393 33.1798 261.049 33.3517 260.648 33.4767C260.253 33.5957 259.807 33.6558 259.312 33.6558C258.568 33.6558 257.938 33.5228 257.422 33.2578C256.906 32.9918 256.516 32.6477 256.25 32.2267C255.984 31.8047 255.852 31.3587 255.852 30.8907H257.305C257.326 31.2857 257.44 31.6018 257.648 31.8358C257.857 32.0648 258.112 32.2288 258.414 32.3278C258.716 32.4218 259.016 32.4688 259.312 32.4688C259.708 32.4688 260.039 32.4168 260.305 32.3118C260.576 32.2078 260.781 32.0648 260.922 31.8828C261.062 31.7008 261.133 31.4918 261.133 31.2578ZM265.922 26.6718V36.7498H264.469V25.0468H265.797L265.922 26.6718ZM271.617 29.2028V29.3668C271.617 29.9818 271.544 30.5518 271.398 31.0778C271.253 31.5988 271.039 32.0517 270.758 32.4377C270.482 32.8227 270.141 33.1218 269.734 33.3358C269.328 33.5488 268.862 33.6558 268.336 33.6558C267.799 33.6558 267.326 33.5677 266.914 33.3907C266.503 33.2137 266.154 32.9558 265.867 32.6168C265.581 32.2788 265.352 31.8718 265.18 31.3978C265.013 30.9238 264.898 30.3908 264.836 29.7968V28.9218C264.898 28.2968 265.016 27.7368 265.188 27.2418C265.359 26.7468 265.586 26.3257 265.867 25.9767C266.154 25.6217 266.5 25.3538 266.906 25.1718C267.312 24.9838 267.781 24.8907 268.312 24.8907C268.844 24.8907 269.315 24.9948 269.727 25.2028C270.138 25.4058 270.484 25.6978 270.766 26.0778C271.047 26.4578 271.258 26.9138 271.398 27.4448C271.544 27.9708 271.617 28.5568 271.617 29.2028ZM270.164 29.3668V29.2028C270.164 28.7808 270.12 28.3847 270.031 28.0157C269.943 27.6407 269.805 27.3118 269.617 27.0308C269.435 26.7448 269.201 26.5208 268.914 26.3588C268.628 26.1928 268.286 26.1088 267.891 26.1088C267.526 26.1088 267.208 26.1718 266.938 26.2968C266.672 26.4218 266.445 26.5907 266.258 26.8047C266.07 27.0127 265.917 27.2528 265.797 27.5228C265.682 27.7888 265.596 28.0647 265.539 28.3517V30.3748C265.643 30.7398 265.789 31.0828 265.977 31.4058C266.164 31.7238 266.414 31.9817 266.727 32.1797C267.039 32.3717 267.432 32.4688 267.906 32.4688C268.297 32.4688 268.633 32.3877 268.914 32.2267C269.201 32.0597 269.435 31.8328 269.617 31.5468C269.805 31.2598 269.943 30.9318 270.031 30.5618C270.12 30.1878 270.164 29.7888 270.164 29.3668ZM273.078 29.3668V29.1877C273.078 28.5777 273.167 28.0128 273.344 27.4918C273.521 26.9658 273.776 26.5098 274.109 26.1248C274.443 25.7338 274.846 25.4317 275.32 25.2188C275.794 24.9998 276.326 24.8907 276.914 24.8907C277.508 24.8907 278.042 24.9998 278.516 25.2188C278.995 25.4317 279.401 25.7338 279.734 26.1248C280.073 26.5098 280.331 26.9658 280.508 27.4918C280.685 28.0128 280.773 28.5777 280.773 29.1877V29.3668C280.773 29.9768 280.685 30.5418 280.508 31.0618C280.331 31.5828 280.073 32.0387 279.734 32.4297C279.401 32.8147 278.997 33.1168 278.523 33.3358C278.055 33.5488 277.523 33.6558 276.93 33.6558C276.336 33.6558 275.802 33.5488 275.328 33.3358C274.854 33.1168 274.448 32.8147 274.109 32.4297C273.776 32.0387 273.521 31.5828 273.344 31.0618C273.167 30.5418 273.078 29.9768 273.078 29.3668ZM274.523 29.1877V29.3668C274.523 29.7888 274.573 30.1878 274.672 30.5618C274.771 30.9318 274.919 31.2598 275.117 31.5468C275.32 31.8328 275.573 32.0597 275.875 32.2267C276.177 32.3877 276.529 32.4688 276.93 32.4688C277.326 32.4688 277.672 32.3877 277.969 32.2267C278.271 32.0597 278.521 31.8328 278.719 31.5468C278.917 31.2598 279.065 30.9318 279.164 30.5618C279.268 30.1878 279.32 29.7888 279.32 29.3668V29.1877C279.32 28.7707 279.268 28.3778 279.164 28.0078C279.065 27.6328 278.914 27.3017 278.711 27.0157C278.513 26.7237 278.263 26.4948 277.961 26.3278C277.664 26.1608 277.315 26.0778 276.914 26.0778C276.518 26.0778 276.169 26.1608 275.867 26.3278C275.57 26.4948 275.32 26.7237 275.117 27.0157C274.919 27.3017 274.771 27.6328 274.672 28.0078C274.573 28.3778 274.523 28.7707 274.523 29.1877ZM284.031 26.3748V33.4998H282.586V25.0468H283.992L284.031 26.3748ZM286.672 24.9998L286.664 26.3438C286.544 26.3177 286.43 26.3018 286.32 26.2968C286.216 26.2858 286.096 26.2808 285.961 26.2808C285.628 26.2808 285.333 26.3327 285.078 26.4377C284.823 26.5417 284.607 26.6878 284.43 26.8748C284.253 27.0618 284.112 27.2858 284.008 27.5468C283.909 27.8018 283.844 28.0827 283.812 28.3907L283.406 28.6248C283.406 28.1148 283.456 27.6347 283.555 27.1877C283.659 26.7397 283.818 26.3438 284.031 25.9998C284.245 25.6508 284.516 25.3797 284.844 25.1877C285.177 24.9897 285.573 24.8907 286.031 24.8907C286.135 24.8907 286.255 24.9037 286.391 24.9297C286.526 24.9507 286.62 24.9738 286.672 24.9998ZM291.938 25.0468V26.1558H287.367V25.0468H291.938ZM288.914 22.9918H290.359V31.4058C290.359 31.6928 290.404 31.9087 290.492 32.0547C290.581 32.2007 290.695 32.2968 290.836 32.3438C290.977 32.3907 291.128 32.4138 291.289 32.4138C291.409 32.4138 291.534 32.4038 291.664 32.3828C291.799 32.3568 291.901 32.3358 291.969 32.3198L291.977 33.4998C291.862 33.5358 291.711 33.5697 291.523 33.6017C291.341 33.6377 291.12 33.6558 290.859 33.6558C290.505 33.6558 290.18 33.5858 289.883 33.4448C289.586 33.3048 289.349 33.0698 289.172 32.7418C289 32.4088 288.914 31.9608 288.914 31.3978V22.9918ZM298.617 32.0547V27.7028C298.617 27.3698 298.549 27.0808 298.414 26.8358C298.284 26.5858 298.086 26.3928 297.82 26.2578C297.555 26.1218 297.227 26.0547 296.836 26.0547C296.471 26.0547 296.151 26.1168 295.875 26.2418C295.604 26.3668 295.391 26.5308 295.234 26.7338C295.083 26.9378 295.008 27.1557 295.008 27.3907H293.562C293.562 27.0887 293.641 26.7888 293.797 26.4918C293.953 26.1948 294.177 25.9267 294.469 25.6877C294.766 25.4427 295.12 25.2498 295.531 25.1088C295.948 24.9638 296.411 24.8907 296.922 24.8907C297.536 24.8907 298.078 24.9948 298.547 25.2028C299.021 25.4108 299.391 25.7268 299.656 26.1478C299.927 26.5648 300.062 27.0888 300.062 27.7188V31.6558C300.062 31.9378 300.086 32.2367 300.133 32.5547C300.185 32.8717 300.26 33.1458 300.359 33.3748V33.4998H298.852C298.779 33.3328 298.721 33.1118 298.68 32.8358C298.638 32.5548 298.617 32.2937 298.617 32.0547ZM298.867 28.3748L298.883 29.3907H297.422C297.01 29.3907 296.643 29.4238 296.32 29.4918C295.997 29.5548 295.727 29.6508 295.508 29.7808C295.289 29.9108 295.122 30.0758 295.008 30.2728C294.893 30.4658 294.836 30.6928 294.836 30.9528C294.836 31.2188 294.896 31.4607 295.016 31.6797C295.135 31.8977 295.315 32.0728 295.555 32.2028C295.799 32.3278 296.099 32.3907 296.453 32.3907C296.896 32.3907 297.286 32.2968 297.625 32.1088C297.964 31.9218 298.232 31.6928 298.43 31.4218C298.633 31.1508 298.742 30.8878 298.758 30.6328L299.375 31.3278C299.339 31.5468 299.24 31.7887 299.078 32.0547C298.917 32.3197 298.701 32.5758 298.43 32.8198C298.164 33.0598 297.846 33.2598 297.477 33.4218C297.112 33.5778 296.701 33.6558 296.242 33.6558C295.669 33.6558 295.167 33.5438 294.734 33.3198C294.307 33.0958 293.974 32.7968 293.734 32.4218C293.5 32.0418 293.383 31.6168 293.383 31.1478C293.383 30.6948 293.471 30.2968 293.648 29.9528C293.826 29.6038 294.081 29.3148 294.414 29.0858C294.747 28.8518 295.148 28.6737 295.617 28.5547C296.086 28.4347 296.609 28.3748 297.188 28.3748H298.867ZM305.875 25.0468V26.1558H301.305V25.0468H305.875ZM302.852 22.9918H304.297V31.4058C304.297 31.6928 304.341 31.9087 304.43 32.0547C304.518 32.2007 304.633 32.2968 304.773 32.3438C304.914 32.3907 305.065 32.4138 305.227 32.4138C305.346 32.4138 305.471 32.4038 305.602 32.3828C305.737 32.3568 305.839 32.3358 305.906 32.3198L305.914 33.4998C305.799 33.5358 305.648 33.5697 305.461 33.6017C305.279 33.6377 305.057 33.6558 304.797 33.6558C304.443 33.6558 304.117 33.5858 303.82 33.4448C303.523 33.3048 303.286 33.0698 303.109 32.7418C302.938 32.4088 302.852 31.9608 302.852 31.3978V22.9918ZM309.141 25.0468V33.4998H307.688V25.0468H309.141ZM307.578 22.8047C307.578 22.5697 307.648 22.3718 307.789 22.2108C307.935 22.0488 308.148 21.9688 308.43 21.9688C308.706 21.9688 308.917 22.0488 309.062 22.2108C309.214 22.3718 309.289 22.5697 309.289 22.8047C309.289 23.0287 309.214 23.2208 309.062 23.3828C308.917 23.5388 308.706 23.6168 308.43 23.6168C308.148 23.6168 307.935 23.5388 307.789 23.3828C307.648 23.2208 307.578 23.0287 307.578 22.8047ZM311.078 29.3668V29.1877C311.078 28.5777 311.167 28.0128 311.344 27.4918C311.521 26.9658 311.776 26.5098 312.109 26.1248C312.443 25.7338 312.846 25.4317 313.32 25.2188C313.794 24.9998 314.326 24.8907 314.914 24.8907C315.508 24.8907 316.042 24.9998 316.516 25.2188C316.995 25.4317 317.401 25.7338 317.734 26.1248C318.073 26.5098 318.331 26.9658 318.508 27.4918C318.685 28.0128 318.773 28.5777 318.773 29.1877V29.3668C318.773 29.9768 318.685 30.5418 318.508 31.0618C318.331 31.5828 318.073 32.0387 317.734 32.4297C317.401 32.8147 316.997 33.1168 316.523 33.3358C316.055 33.5488 315.523 33.6558 314.93 33.6558C314.336 33.6558 313.802 33.5488 313.328 33.3358C312.854 33.1168 312.448 32.8147 312.109 32.4297C311.776 32.0387 311.521 31.5828 311.344 31.0618C311.167 30.5418 311.078 29.9768 311.078 29.3668ZM312.523 29.1877V29.3668C312.523 29.7888 312.573 30.1878 312.672 30.5618C312.771 30.9318 312.919 31.2598 313.117 31.5468C313.32 31.8328 313.573 32.0597 313.875 32.2267C314.177 32.3877 314.529 32.4688 314.93 32.4688C315.326 32.4688 315.672 32.3877 315.969 32.2267C316.271 32.0597 316.521 31.8328 316.719 31.5468C316.917 31.2598 317.065 30.9318 317.164 30.5618C317.268 30.1878 317.32 29.7888 317.32 29.3668V29.1877C317.32 28.7707 317.268 28.3778 317.164 28.0078C317.065 27.6328 316.914 27.3017 316.711 27.0157C316.513 26.7237 316.263 26.4948 315.961 26.3278C315.664 26.1608 315.315 26.0778 314.914 26.0778C314.518 26.0778 314.169 26.1608 313.867 26.3278C313.57 26.4948 313.32 26.7237 313.117 27.0157C312.919 27.3017 312.771 27.6328 312.672 28.0078C312.573 28.3778 312.523 28.7707 312.523 29.1877ZM322.031 26.8517V33.4998H320.586V25.0468H321.953L322.031 26.8517ZM321.688 28.9528L321.086 28.9297C321.091 28.3517 321.177 27.8178 321.344 27.3278C321.51 26.8328 321.745 26.4038 322.047 26.0388C322.349 25.6738 322.708 25.3928 323.125 25.1948C323.547 24.9918 324.013 24.8907 324.523 24.8907C324.94 24.8907 325.315 24.9478 325.648 25.0618C325.982 25.1718 326.266 25.3487 326.5 25.5938C326.74 25.8388 326.922 26.1558 327.047 26.5468C327.172 26.9318 327.234 27.4038 327.234 27.9608V33.4998H325.781V27.9448C325.781 27.5028 325.716 27.1478 325.586 26.8828C325.456 26.6118 325.266 26.4168 325.016 26.2968C324.766 26.1718 324.458 26.1088 324.094 26.1088C323.734 26.1088 323.406 26.1848 323.109 26.3358C322.818 26.4868 322.565 26.6948 322.352 26.9608C322.143 27.2268 321.979 27.5308 321.859 27.8748C321.745 28.2138 321.688 28.5728 321.688 28.9528Z" fill="#CCD6DB"/>
<path d="M385 38V33L382.857 28H398.5L396 33H387L385 38Z" fill="#CCD6DB"/>
<path d="M379 26H382L382.857 28M382.857 28L385 33V38L387 33H396L398.5 28H382.857Z" stroke="#CCD6DB" stroke-width="1.5" stroke-linecap="round"/>
<path d="M397.5 37.75C398.743 37.75 399.75 36.7426 399.75 35.5C399.75 34.2574 398.743 33.25 397.5 33.25C396.257 33.25 395.25 34.2574 395.25 35.5C395.25 36.7426 396.257 37.75 397.5 37.75Z" fill="#CCD6DB" stroke="#CCD6DB" stroke-width="1.5"/>
<path d="M391.25 25.1992V24.4492H390.5H387.5C386.534 24.4492 385.75 25.2332 385.75 26.1992V27.1992V27.9492H386.5H390.5H391.25V27.1992V25.1992Z" stroke="#CCD6DB" stroke-width="1.5"/>
<path d="M392.5 24.4492H391.75V25.1992V27.1992V27.9492H392.5H396.5H397.25V27.1992V26.1992C397.25 25.2332 396.466 24.4492 395.5 24.4492H392.5Z" stroke="#CCD6DB" stroke-width="1.5"/>
<path d="M393.5 24.25H394.25V23.5V22.5C394.25 21.534 393.466 20.75 392.5 20.75H390.5C389.534 20.75 388.75 21.534 388.75 22.5V23.5V24.25H389.5H393.5Z" stroke="#CCD6DB" stroke-width="1.5"/>
<path d="M414.82 22.125H418.586C419.44 22.125 420.161 22.255 420.75 22.516C421.344 22.776 421.794 23.161 422.102 23.672C422.414 24.177 422.57 24.799 422.57 25.539C422.57 26.06 422.464 26.536 422.25 26.969C422.042 27.396 421.74 27.76 421.344 28.062C420.953 28.359 420.484 28.581 419.938 28.727L419.516 28.891H415.977L415.961 27.664H418.633C419.174 27.664 419.625 27.57 419.984 27.383C420.344 27.19 420.615 26.932 420.797 26.609C420.979 26.286 421.07 25.93 421.07 25.539C421.07 25.102 420.984 24.719 420.812 24.391C420.641 24.062 420.37 23.81 420 23.633C419.635 23.451 419.164 23.359 418.586 23.359H416.328V33.5H414.82V22.125ZM421.469 33.5L418.703 28.344L420.273 28.336L423.078 33.406V33.5H421.469ZM429.445 32.055V27.703C429.445 27.37 429.378 27.081 429.242 26.836C429.112 26.586 428.914 26.393 428.648 26.258C428.383 26.122 428.055 26.055 427.664 26.055C427.299 26.055 426.979 26.117 426.703 26.242C426.432 26.367 426.219 26.531 426.062 26.734C425.911 26.938 425.836 27.156 425.836 27.391H424.391C424.391 27.089 424.469 26.789 424.625 26.492C424.781 26.195 425.005 25.927 425.297 25.688C425.594 25.443 425.948 25.25 426.359 25.109C426.776 24.964 427.24 24.891 427.75 24.891C428.365 24.891 428.906 24.995 429.375 25.203C429.849 25.411 430.219 25.727 430.484 26.148C430.755 26.565 430.891 27.089 430.891 27.719V31.656C430.891 31.938 430.914 32.237 430.961 32.555C431.013 32.872 431.089 33.146 431.188 33.375V33.5H429.68C429.607 33.333 429.549 33.112 429.508 32.836C429.466 32.555 429.445 32.294 429.445 32.055ZM429.695 28.375L429.711 29.391H428.25C427.839 29.391 427.471 29.424 427.148 29.492C426.826 29.555 426.555 29.651 426.336 29.781C426.117 29.911 425.951 30.076 425.836 30.273C425.721 30.466 425.664 30.693 425.664 30.953C425.664 31.219 425.724 31.461 425.844 31.68C425.964 31.898 426.143 32.073 426.383 32.203C426.628 32.328 426.927 32.391 427.281 32.391C427.724 32.391 428.115 32.297 428.453 32.109C428.792 31.922 429.06 31.693 429.258 31.422C429.461 31.151 429.57 30.888 429.586 30.633L430.203 31.328C430.167 31.547 430.068 31.789 429.906 32.055C429.745 32.32 429.529 32.576 429.258 32.82C428.992 33.06 428.674 33.26 428.305 33.422C427.94 33.578 427.529 33.656 427.07 33.656C426.497 33.656 425.995 33.544 425.562 33.32C425.135 33.096 424.802 32.797 424.562 32.422C424.328 32.042 424.211 31.617 424.211 31.148C424.211 30.695 424.299 30.297 424.477 29.953C424.654 29.604 424.909 29.315 425.242 29.086C425.576 28.852 425.977 28.674 426.445 28.555C426.914 28.435 427.438 28.375 428.016 28.375H429.695ZM435.305 32L437.477 25.047H438.43L438.242 26.43L436.031 33.5H435.102L435.305 32ZM433.844 25.047L435.695 32.078L435.828 33.5H434.852L432.398 25.047H433.844ZM440.508 32.023L442.273 25.047H443.711L441.258 33.5H440.289L440.508 32.023ZM438.641 25.047L440.766 31.883L441.008 33.5H440.086L437.812 26.414L437.625 25.047H438.641ZM449.859 22.125H451.32L455.047 31.398L458.766 22.125H460.234L455.609 33.5H454.469L449.859 22.125ZM449.383 22.125H450.672L450.883 29.062V33.5H449.383V22.125ZM459.414 22.125H460.703V33.5H459.203V29.062L459.414 22.125ZM468.117 32.055V27.703C468.117 27.37 468.049 27.081 467.914 26.836C467.784 26.586 467.586 26.393 467.32 26.258C467.055 26.122 466.727 26.055 466.336 26.055C465.971 26.055 465.651 26.117 465.375 26.242C465.104 26.367 464.891 26.531 464.734 26.734C464.583 26.938 464.508 27.156 464.508 27.391H463.062C463.062 27.089 463.141 26.789 463.297 26.492C463.453 26.195 463.677 25.927 463.969 25.688C464.266 25.443 464.62 25.25 465.031 25.109C465.448 24.964 465.911 24.891 466.422 24.891C467.036 24.891 467.578 24.995 468.047 25.203C468.521 25.411 468.891 25.727 469.156 26.148C469.427 26.565 469.562 27.089 469.562 27.719V31.656C469.562 31.938 469.586 32.237 469.633 32.555C469.685 32.872 469.76 33.146 469.859 33.375V33.5H468.352C468.279 33.333 468.221 33.112 468.18 32.836C468.138 32.555 468.117 32.294 468.117 32.055ZM468.367 28.375L468.383 29.391H466.922C466.51 29.391 466.143 29.424 465.82 29.492C465.497 29.555 465.227 29.651 465.008 29.781C464.789 29.911 464.622 30.076 464.508 30.273C464.393 30.466 464.336 30.693 464.336 30.953C464.336 31.219 464.396 31.461 464.516 31.68C464.635 31.898 464.815 32.073 465.055 32.203C465.299 32.328 465.599 32.391 465.953 32.391C466.396 32.391 466.786 32.297 467.125 32.109C467.464 31.922 467.732 31.693 467.93 31.422C468.133 31.151 468.242 30.888 468.258 30.633L468.875 31.328C468.839 31.547 468.74 31.789 468.578 32.055C468.417 32.32 468.201 32.576 467.93 32.82C467.664 33.06 467.346 33.26 466.977 33.422C466.612 33.578 466.201 33.656 465.742 33.656C465.169 33.656 464.667 33.544 464.234 33.32C463.807 33.096 463.474 32.797 463.234 32.422C463 32.042 462.883 31.617 462.883 31.148C462.883 30.695 462.971 30.297 463.148 29.953C463.326 29.604 463.581 29.315 463.914 29.086C464.247 28.852 464.648 28.674 465.117 28.555C465.586 28.435 466.109 28.375 466.688 28.375H468.367ZM475.375 25.047V26.156H470.805V25.047H475.375ZM472.352 22.992H473.797V31.406C473.797 31.693 473.841 31.909 473.93 32.055C474.018 32.201 474.133 32.297 474.273 32.344C474.414 32.391 474.565 32.414 474.727 32.414C474.846 32.414 474.971 32.404 475.102 32.383C475.237 32.357 475.339 32.336 475.406 32.32L475.414 33.5C475.299 33.536 475.148 33.57 474.961 33.602C474.779 33.638 474.557 33.656 474.297 33.656C473.943 33.656 473.617 33.586 473.32 33.445C473.023 33.305 472.786 33.07 472.609 32.742C472.438 32.409 472.352 31.961 472.352 31.398V22.992ZM480.578 33.656C479.99 33.656 479.456 33.557 478.977 33.359C478.503 33.156 478.094 32.872 477.75 32.508C477.411 32.143 477.151 31.711 476.969 31.211C476.786 30.711 476.695 30.164 476.695 29.57V29.242C476.695 28.555 476.797 27.943 477 27.406C477.203 26.865 477.479 26.406 477.828 26.031C478.177 25.656 478.573 25.372 479.016 25.18C479.458 24.987 479.917 24.891 480.391 24.891C480.995 24.891 481.516 24.995 481.953 25.203C482.396 25.411 482.758 25.703 483.039 26.078C483.32 26.448 483.529 26.885 483.664 27.391C483.799 27.891 483.867 28.438 483.867 29.031V29.68H477.555V28.5H482.422V28.391C482.401 28.016 482.323 27.651 482.188 27.297C482.057 26.943 481.849 26.651 481.562 26.422C481.276 26.193 480.885 26.078 480.391 26.078C480.062 26.078 479.76 26.148 479.484 26.289C479.208 26.424 478.971 26.628 478.773 26.898C478.576 27.169 478.422 27.5 478.312 27.891C478.203 28.281 478.148 28.732 478.148 29.242V29.57C478.148 29.971 478.203 30.349 478.312 30.703C478.427 31.052 478.591 31.359 478.805 31.625C479.023 31.891 479.286 32.099 479.594 32.25C479.906 32.401 480.26 32.477 480.656 32.477C481.167 32.477 481.599 32.372 481.953 32.164C482.307 31.956 482.617 31.677 482.883 31.328L483.758 32.023C483.576 32.299 483.344 32.562 483.062 32.812C482.781 33.062 482.435 33.266 482.023 33.422C481.617 33.578 481.135 33.656 480.578 33.656ZM487 26.375V33.5H485.555V25.047H486.961L487 26.375ZM489.641 25L489.633 26.344C489.513 26.318 489.398 26.302 489.289 26.297C489.185 26.286 489.065 26.281 488.93 26.281C488.596 26.281 488.302 26.333 488.047 26.438C487.792 26.542 487.576 26.688 487.398 26.875C487.221 27.062 487.081 27.286 486.977 27.547C486.878 27.802 486.812 28.083 486.781 28.391L486.375 28.625C486.375 28.115 486.424 27.635 486.523 27.188C486.628 26.74 486.786 26.344 487 26C487.214 25.651 487.484 25.38 487.812 25.188C488.146 24.99 488.542 24.891 489 24.891C489.104 24.891 489.224 24.904 489.359 24.93C489.495 24.951 489.589 24.974 489.641 25ZM492.547 25.047V33.5H491.094V25.047H492.547ZM490.984 22.805C490.984 22.57 491.055 22.372 491.195 22.211C491.341 22.049 491.555 21.969 491.836 21.969C492.112 21.969 492.323 22.049 492.469 22.211C492.62 22.372 492.695 22.57 492.695 22.805C492.695 23.029 492.62 23.221 492.469 23.383C492.323 23.539 492.112 23.617 491.836 23.617C491.555 23.617 491.341 23.539 491.195 23.383C491.055 23.221 490.984 23.029 490.984 22.805ZM499.852 32.055V27.703C499.852 27.37 499.784 27.081 499.648 26.836C499.518 26.586 499.32 26.393 499.055 26.258C498.789 26.122 498.461 26.055 498.07 26.055C497.706 26.055 497.385 26.117 497.109 26.242C496.839 26.367 496.625 26.531 496.469 26.734C496.318 26.938 496.242 27.156 496.242 27.391H494.797C494.797 27.089 494.875 26.789 495.031 26.492C495.188 26.195 495.411 25.927 495.703 25.688C496 25.443 496.354 25.25 496.766 25.109C497.182 24.964 497.646 24.891 498.156 24.891C498.771 24.891 499.312 24.995 499.781 25.203C500.255 25.411 500.625 25.727 500.891 26.148C501.161 26.565 501.297 27.089 501.297 27.719V31.656C501.297 31.938 501.32 32.237 501.367 32.555C501.419 32.872 501.495 33.146 501.594 33.375V33.5H500.086C500.013 33.333 499.956 33.112 499.914 32.836C499.872 32.555 499.852 32.294 499.852 32.055ZM500.102 28.375L500.117 29.391H498.656C498.245 29.391 497.878 29.424 497.555 29.492C497.232 29.555 496.961 29.651 496.742 29.781C496.523 29.911 496.357 30.076 496.242 30.273C496.128 30.466 496.07 30.693 496.07 30.953C496.07 31.219 496.13 31.461 496.25 31.68C496.37 31.898 496.549 32.073 496.789 32.203C497.034 32.328 497.333 32.391 497.688 32.391C498.13 32.391 498.521 32.297 498.859 32.109C499.198 31.922 499.466 31.693 499.664 31.422C499.867 31.151 499.977 30.888 499.992 30.633L500.609 31.328C500.573 31.547 500.474 31.789 500.312 32.055C500.151 32.32 499.935 32.576 499.664 32.82C499.398 33.06 499.081 33.26 498.711 33.422C498.346 33.578 497.935 33.656 497.477 33.656C496.904 33.656 496.401 33.544 495.969 33.32C495.542 33.096 495.208 32.797 494.969 32.422C494.734 32.042 494.617 31.617 494.617 31.148C494.617 30.695 494.706 30.297 494.883 29.953C495.06 29.604 495.315 29.315 495.648 29.086C495.982 28.852 496.383 28.674 496.852 28.555C497.32 28.435 497.844 28.375 498.422 28.375H500.102ZM505.141 21.5V33.5H503.688V21.5H505.141ZM512.383 31.258C512.383 31.049 512.336 30.857 512.242 30.68C512.154 30.497 511.969 30.333 511.688 30.188C511.411 30.036 510.995 29.906 510.438 29.797C509.969 29.698 509.544 29.581 509.164 29.445C508.789 29.31 508.469 29.146 508.203 28.953C507.943 28.76 507.742 28.534 507.602 28.273C507.461 28.013 507.391 27.708 507.391 27.359C507.391 27.026 507.464 26.711 507.609 26.414C507.76 26.117 507.971 25.854 508.242 25.625C508.518 25.396 508.849 25.216 509.234 25.086C509.62 24.956 510.049 24.891 510.523 24.891C511.201 24.891 511.779 25.01 512.258 25.25C512.737 25.49 513.104 25.81 513.359 26.211C513.615 26.607 513.742 27.047 513.742 27.531H512.297C512.297 27.297 512.227 27.07 512.086 26.852C511.951 26.628 511.75 26.443 511.484 26.297C511.224 26.151 510.904 26.078 510.523 26.078C510.122 26.078 509.797 26.141 509.547 26.266C509.302 26.385 509.122 26.539 509.008 26.727C508.898 26.914 508.844 27.112 508.844 27.32C508.844 27.477 508.87 27.617 508.922 27.742C508.979 27.862 509.078 27.974 509.219 28.078C509.359 28.177 509.557 28.271 509.812 28.359C510.068 28.448 510.393 28.536 510.789 28.625C511.482 28.781 512.052 28.969 512.5 29.188C512.948 29.406 513.281 29.674 513.5 29.992C513.719 30.31 513.828 30.695 513.828 31.148C513.828 31.518 513.75 31.857 513.594 32.164C513.443 32.471 513.221 32.737 512.93 32.961C512.643 33.18 512.299 33.352 511.898 33.477C511.503 33.596 511.057 33.656 510.562 33.656C509.818 33.656 509.188 33.523 508.672 33.258C508.156 32.992 507.766 32.648 507.5 32.227C507.234 31.805 507.102 31.359 507.102 30.891H508.555C508.576 31.286 508.69 31.602 508.898 31.836C509.107 32.065 509.362 32.229 509.664 32.328C509.966 32.422 510.266 32.469 510.562 32.469C510.958 32.469 511.289 32.417 511.555 32.312C511.826 32.208 512.031 32.065 512.172 31.883C512.312 31.701 512.383 31.492 512.383 31.258Z" fill="#CCD6DB"/>
<path d="M352.5 16.5H353.5V40.5H352.5V16.5Z" fill="#335C70"/>
</svg>
